<?xml version="1.0" encoding="UTF-8"?>
<svg xmlns="http://www.w3.org/2000/svg" viewBox="0 0 500 500">
  <defs>
    <style>
      .cls-1 {
        opacity: .3;
      }

      .cls-1, .cls-2, .cls-3, .cls-4, .cls-5, .cls-6, .cls-7, .cls-8, .cls-9, .cls-10, .cls-11, .cls-12, .cls-13, .cls-14, .cls-15 {
        stroke-width: 0px;
      }

      .cls-2, .cls-5, .cls-6, .cls-10 {
        fill: #fff;
      }

      .cls-2, .cls-16 {
        opacity: .8;
      }

      .cls-3, .cls-6, .cls-17 {
        opacity: .5;
      }

      .cls-4, .cls-5, .cls-7 {
        opacity: .4;
      }

      .cls-4, .cls-8 {
        fill: #407bff;
      }

      .cls-18 {
        opacity: .6;
      }

      .cls-19 {
        opacity: .7;
      }

      .cls-9 {
        fill: #e0e0e0;
      }

      .cls-11 {
        fill: #ebebeb;
      }

      .cls-12 {
        fill: #f0f0f0;
      }

      .cls-13 {
        fill: #e6e6e6;
      }

      .cls-14 {
        fill: #f5f5f5;
      }

      .cls-15 {
        opacity: .2;
      }
    </style>
  </defs>
  <g id="Background_Complete" data-name="Background Complete">
    <rect class="cls-11" x="416.78" y="398.49" width="33.12" height=".25"/>
    <rect class="cls-11" x="322.53" y="401.21" width="8.69" height=".25"/>
    <rect class="cls-11" x="396.59" y="389.21" width="19.19" height=".25"/>
    <rect class="cls-11" x="52.46" y="390.89" width="43.19" height=".25"/>
    <rect class="cls-11" x="104.56" y="390.89" width="6.33" height=".25"/>
    <rect class="cls-11" x="131.47" y="395.11" width="93.68" height=".25"/>
    <path class="cls-11" d="M237.01,337.8H43.91c-3.15,0-5.71-2.56-5.71-5.71V60.66c0-3.15,2.56-5.71,5.71-5.71h193.1c3.15,0,5.71,2.56,5.71,5.71v271.43c0,3.15-2.56,5.71-5.71,5.71ZM43.91,55.2c-3.01,0-5.46,2.45-5.46,5.46v271.43c0,3.01,2.45,5.46,5.46,5.46h193.1c3.01,0,5.46-2.45,5.46-5.46V60.66c0-3.01-2.45-5.46-5.46-5.46H43.91Z"/>
    <path class="cls-11" d="M453.31,337.8h-193.1c-3.15,0-5.71-2.56-5.71-5.71V60.66c0-3.15,2.56-5.71,5.71-5.71h193.1c3.15,0,5.71,2.56,5.71,5.71v271.43c0,3.15-2.56,5.71-5.71,5.71ZM260.21,55.2c-3.01,0-5.46,2.45-5.46,5.46v271.43c0,3.01,2.45,5.46,5.46,5.46h193.1c3.01,0,5.46-2.45,5.46-5.46V60.66c0-3.01-2.45-5.46-5.46-5.46h-193.1Z"/>
    <rect class="cls-11" y="382.4" width="500" height=".25"/>
    <g>
      <g>
        <rect class="cls-13" x="126.78" y="242.62" width="22.4" height="94.96"/>
        <rect class="cls-9" x="164.12" y="210.24" width="22.4" height="127.34"/>
        <rect class="cls-11" x="201.46" y="242.62" width="22.4" height="94.96"/>
        <rect class="cls-12" x="52.1" y="274.99" width="22.4" height="62.58"/>
        <rect class="cls-11" x="89.44" y="259.36" width="22.4" height="78.21"/>
        <rect class="cls-14" x="238.8" y="274.99" width="22.4" height="62.58"/>
        <rect class="cls-9" x="425.49" y="177.86" width="22.4" height="159.72"/>
        <rect class="cls-12" x="276.14" y="242.62" width="22.4" height="94.96"/>
        <rect class="cls-13" x="388.15" y="210.24" width="22.4" height="127.34"/>
        <rect class="cls-11" x="350.82" y="226.98" width="22.4" height="110.59"/>
        <rect class="cls-12" x="313.48" y="259.36" width="22.4" height="78.21"/>
      </g>
      <g>
        <g>
          <circle class="cls-9" cx="67.91" cy="212.4" r="15.63" transform="translate(-154.41 229.7) rotate(-76.72)"/>
          <circle class="cls-13" cx="69.79" cy="212.4" r="15.63" transform="translate(-129.75 111.56) rotate(-45)"/>
          <circle class="cls-12" cx="69.79" cy="212.4" r="11.7"/>
        </g>
        <path class="cls-10" d="M74.93,214.89c.45,2.59-1.33,4.32-4.52,4.59l-.05,2.14h-1.94l.05-2.14c-1.88-.17-3.61-.76-4.73-1.5l.88-2.41c1.16.76,2.55,1.24,3.92,1.38l.09-3.29c-1.9-.54-4.01-1.26-4.42-3.62-.45-2.59,1.36-4.33,4.63-4.57l.05-2.14h1.94l-.05,2.16c1.4.14,2.74.53,3.77,1.11l-.76,2.41c-.94-.56-2-.89-3.07-1.01l-.08,3.42c1.88.53,3.93,1.23,4.32,3.46ZM68.66,210.89l.07-2.8c-1.07.21-1.59.82-1.48,1.56.11.6.65.95,1.4,1.24ZM71.86,215.4c-.1-.56-.61-.91-1.33-1.17l-.06,2.66c1.01-.21,1.52-.76,1.39-1.5Z"/>
      </g>
      <g>
        <rect class="cls-12" x="351.17" y="80.48" width="96.37" height="45.74" rx="7.49" ry="7.49"/>
        <g>
          <rect class="cls-10" x="368.69" y="86.71" width="8.22" height="33.92" rx=".72" ry=".72"/>
          <rect class="cls-10" x="424.19" y="86.71" width="8.22" height="33.92" rx=".72" ry=".72"/>
          <rect class="cls-10" x="397.4" y="97.9" width="8.22" height="22.74" rx=".72" ry=".72"/>
          <rect class="cls-10" x="383.17" y="103.35" width="8.22" height="17.28" rx=".72" ry=".72"/>
          <rect class="cls-10" x="410.8" y="116.63" width="8.22" height="4" rx=".72" ry=".72"/>
        </g>
        <path class="cls-9" d="M428.42,86.51c-.38-.19-.83-.02-.99.37l-11.99,26.04c-.23.55-.99.61-1.29.1l-11.17-16.95c-.21-.36-.68-.46-1.03-.23l-13.92,5.6c-.22.15-.52.16-.75.03l-15.26-15.39c-.37-.2-.83-.05-1.01.33l-.04.08c-.16.34-.02.75.31.94l16.06,15.83c.24.13.53.12.75-.03l13.41-5.26c.35-.23.81-.13,1.03.23l11.84,18.07c.31.51,1.07.46,1.29-.1l13.1-28.75c.14-.35,0-.76-.35-.92Z"/>
      </g>
      <g>
        <g>
          <circle class="cls-9" cx="221.2" cy="108.78" r="16.31"/>
          <circle class="cls-2" cx="221.01" cy="108.78" r="13.09"/>
        </g>
        <circle class="cls-9" cx="220.97" cy="109.87" r="1.33"/>
        <polygon class="cls-9" points="220.82 110.36 215.19 105.06 215.74 104.48 220.84 109.28 229.98 101.2 230.51 101.8 220.82 110.36"/>
      </g>
    </g>
  </g>
  <g id="Shadow">
    <ellipse id="_Path_" data-name="&amp;lt;Path&amp;gt;" class="cls-14" cx="250" cy="415.69" rx="193.89" ry="11.32"/>
  </g>
  <g id="Chart_2" data-name="Chart 2">
    <g>
      <g>
        <rect class="cls-8" x="217.2" y="242.7" width="66.02" height="173.73"/>
        <rect class="cls-3" x="234.2" y="242.7" width="49.23" height="173.73"/>
      </g>
      <g>
        <rect class="cls-8" x="303.45" y="301.93" width="66.02" height="114.49"/>
        <rect class="cls-1" x="320.24" y="301.66" width="49.23" height="114.77"/>
      </g>
      <g>
        <rect class="cls-8" x="130.53" y="273.68" width="66.02" height="142.74"/>
        <rect class="cls-7" x="147.32" y="273.33" width="49.23" height="143.09"/>
      </g>
    </g>
  </g>
  <g id="Coins">
    <g>
      <g>
        <g>
          <path class="cls-8" d="M156.23,416.61c-.09,2.13,6.64,4.14,15.03,4.49,8.39.36,15.27-1.08,15.36-3.2.09-2.13-6.64-4.14-15.03-4.49-8.39-.36-15.27,1.08-15.36,3.2Z"/>
          <rect class="cls-8" x="169.58" y="400.13" width="3.85" height="30.42" transform="translate(-250.73 569.06) rotate(-87.57)"/>
        </g>
        <g>
          <path class="cls-8" d="M156.39,412.76c-.09,2.13,6.64,4.14,15.03,4.49,8.39.36,15.27-1.08,15.36-3.2.09-2.13-6.64-4.14-15.03-4.49-8.39-.36-15.27,1.08-15.36,3.2Z"/>
          <path class="cls-5" d="M156.39,412.76c-.09,2.13,6.64,4.14,15.03,4.49,8.39.36,15.27-1.08,15.36-3.2.09-2.13-6.64-4.14-15.03-4.49-8.39-.36-15.27,1.08-15.36,3.2Z"/>
        </g>
        <g>
          <path class="cls-8" d="M158.33,412.7c0,.12.04.28.13.38,1.02-1.25,6.57-1.98,13.21-1.7,6.66.28,12.13,1.49,13.02,2.82.09-.1.16-.24.16-.37.06-1.44-5.82-2.88-13.15-3.19-7.31-.31-13.31.63-13.37,2.07Z"/>
          <path class="cls-4" d="M158.33,412.7c0,.12.04.28.13.38,1.02-1.25,6.57-1.98,13.21-1.7,6.66.28,12.13,1.49,13.02,2.82.09-.1.16-.24.16-.37.06-1.44-5.82-2.88-13.15-3.19-7.31-.31-13.31.63-13.37,2.07Z"/>
        </g>
        <path class="cls-4" d="M158.46,413.08c.91,1.33,6.38,2.53,13.02,2.82,6.66.28,12.21-.45,13.21-1.7-.89-1.33-6.36-2.53-13.02-2.82-6.64-.28-12.19.45-13.21,1.7Z"/>
      </g>
      <g>
        <g>
          <path class="cls-8" d="M153.04,410.78c-.09,2.13,6.64,4.14,15.03,4.49,8.39.36,15.27-1.08,15.36-3.2.09-2.13-6.64-4.14-15.03-4.49-8.39-.36-15.27,1.08-15.36,3.2Z"/>
          <rect class="cls-8" x="166.39" y="394.3" width="3.85" height="30.42" transform="translate(-247.96 560.31) rotate(-87.57)"/>
        </g>
        <g>
          <path class="cls-8" d="M153.2,406.94c-.09,2.13,6.64,4.14,15.03,4.49,8.39.36,15.27-1.08,15.36-3.2.09-2.13-6.64-4.14-15.03-4.49-8.39-.36-15.27,1.08-15.36,3.2Z"/>
          <path class="cls-5" d="M153.2,406.94c-.09,2.13,6.64,4.14,15.03,4.49,8.39.36,15.27-1.08,15.36-3.2.09-2.13-6.64-4.14-15.03-4.49-8.39-.36-15.27,1.08-15.36,3.2Z"/>
        </g>
        <g>
          <path class="cls-8" d="M155.14,406.87c0,.12.04.28.13.38,1.02-1.25,6.57-1.98,13.21-1.7,6.66.28,12.13,1.49,13.02,2.82.09-.1.16-.24.16-.37.06-1.44-5.82-2.88-13.15-3.19-7.31-.31-13.31.63-13.37,2.07Z"/>
          <path class="cls-4" d="M155.14,406.87c0,.12.04.28.13.38,1.02-1.25,6.57-1.98,13.21-1.7,6.66.28,12.13,1.49,13.02,2.82.09-.1.16-.24.16-.37.06-1.44-5.82-2.88-13.15-3.19-7.31-.31-13.31.63-13.37,2.07Z"/>
        </g>
        <path class="cls-4" d="M155.27,407.25c.91,1.33,6.38,2.53,13.02,2.82,6.66.28,12.21-.45,13.21-1.7-.89-1.33-6.36-2.53-13.02-2.82-6.64-.28-12.19.45-13.21,1.7Z"/>
      </g>
      <g>
        <g>
          <path class="cls-8" d="M153.45,403.76c-.09,2.13,6.64,4.14,15.03,4.49,8.39.36,15.27-1.08,15.36-3.2.09-2.13-6.64-4.14-15.03-4.49-8.39-.36-15.27,1.08-15.36,3.2Z"/>
          <rect class="cls-8" x="166.8" y="387.28" width="3.85" height="30.42" transform="translate(-240.55 553.99) rotate(-87.57)"/>
        </g>
        <g>
          <path class="cls-8" d="M153.61,399.91c-.09,2.13,6.64,4.14,15.03,4.49,8.39.36,15.27-1.08,15.36-3.2.09-2.13-6.64-4.14-15.03-4.49-8.39-.36-15.27,1.08-15.36,3.2Z"/>
          <path class="cls-5" d="M153.61,399.91c-.09,2.13,6.64,4.14,15.03,4.49,8.39.36,15.27-1.08,15.36-3.2.09-2.13-6.64-4.14-15.03-4.49-8.39-.36-15.27,1.08-15.36,3.2Z"/>
        </g>
        <g>
          <path class="cls-8" d="M155.55,399.85c0,.12.04.28.13.38,1.02-1.25,6.57-1.98,13.21-1.7,6.66.28,12.13,1.49,13.02,2.82.09-.1.16-.24.16-.37.06-1.44-5.82-2.88-13.15-3.19-7.31-.31-13.31.63-13.37,2.07Z"/>
          <path class="cls-4" d="M155.55,399.85c0,.12.04.28.13.38,1.02-1.25,6.57-1.98,13.21-1.7,6.66.28,12.13,1.49,13.02,2.82.09-.1.16-.24.16-.37.06-1.44-5.82-2.88-13.15-3.19-7.31-.31-13.31.63-13.37,2.07Z"/>
        </g>
        <path class="cls-4" d="M155.68,400.23c.91,1.33,6.38,2.53,13.02,2.82,6.66.28,12.21-.45,13.21-1.7-.89-1.33-6.36-2.53-13.02-2.82-6.64-.28-12.19.45-13.21,1.7Z"/>
      </g>
      <g>
        <g>
          <path class="cls-8" d="M150.26,397.94c-.09,2.13,6.64,4.14,15.03,4.49,8.39.36,15.27-1.08,15.36-3.2.09-2.13-6.64-4.14-15.03-4.49-8.39-.36-15.27,1.08-15.36,3.2Z"/>
          <rect class="cls-8" x="163.61" y="381.45" width="3.85" height="30.42" transform="translate(-237.79 545.2) rotate(-87.57)"/>
        </g>
        <g>
          <path class="cls-8" d="M150.42,394.09c-.09,2.13,6.64,4.14,15.03,4.49,8.39.36,15.27-1.08,15.36-3.2.09-2.13-6.64-4.14-15.03-4.49-8.39-.36-15.27,1.08-15.36,3.2Z"/>
          <path class="cls-5" d="M150.42,394.09c-.09,2.13,6.64,4.14,15.03,4.49,8.39.36,15.27-1.08,15.36-3.2.09-2.13-6.64-4.14-15.03-4.49-8.39-.36-15.27,1.08-15.36,3.2Z"/>
        </g>
        <g>
          <path class="cls-8" d="M152.36,394.02c0,.12.04.28.13.38,1.02-1.25,6.57-1.98,13.21-1.7,6.66.28,12.13,1.49,13.02,2.82.09-.1.16-.24.16-.37.06-1.44-5.82-2.88-13.15-3.19-7.31-.31-13.31.63-13.37,2.07Z"/>
          <path class="cls-4" d="M152.36,394.02c0,.12.04.28.13.38,1.02-1.25,6.57-1.98,13.21-1.7,6.66.28,12.13,1.49,13.02,2.82.09-.1.16-.24.16-.37.06-1.44-5.82-2.88-13.15-3.19-7.31-.31-13.31.63-13.37,2.07Z"/>
        </g>
        <path class="cls-4" d="M152.49,394.4c.91,1.33,6.38,2.53,13.02,2.82,6.66.28,12.21-.45,13.21-1.7-.89-1.33-6.36-2.53-13.02-2.82-6.64-.28-12.19.45-13.21,1.7Z"/>
      </g>
      <g>
        <g>
          <path class="cls-8" d="M155.13,393c-.09,2.13,6.64,4.14,15.03,4.49,8.39.36,15.27-1.08,15.36-3.2.09-2.13-6.64-4.14-15.03-4.49-8.39-.36-15.27,1.08-15.36,3.2Z"/>
          <rect class="cls-8" x="168.48" y="376.51" width="3.85" height="30.42" transform="translate(-228.18 545.36) rotate(-87.57)"/>
        </g>
        <g>
          <path class="cls-8" d="M155.3,389.15c-.09,2.13,6.64,4.14,15.03,4.49,8.39.36,15.27-1.08,15.36-3.2.09-2.13-6.64-4.14-15.03-4.49-8.39-.36-15.27,1.08-15.36,3.2Z"/>
          <path class="cls-5" d="M155.3,389.15c-.09,2.13,6.64,4.14,15.03,4.49,8.39.36,15.27-1.08,15.36-3.2.09-2.13-6.64-4.14-15.03-4.49-8.39-.36-15.27,1.08-15.36,3.2Z"/>
        </g>
        <g>
          <path class="cls-8" d="M157.23,389.08c0,.12.04.28.13.38,1.02-1.25,6.57-1.98,13.21-1.7,6.66.28,12.13,1.49,13.02,2.82.09-.1.16-.24.16-.37.06-1.44-5.82-2.88-13.15-3.19-7.31-.31-13.31.63-13.37,2.07Z"/>
          <path class="cls-4" d="M157.23,389.08c0,.12.04.28.13.38,1.02-1.25,6.57-1.98,13.21-1.7,6.66.28,12.13,1.49,13.02,2.82.09-.1.16-.24.16-.37.06-1.44-5.82-2.88-13.15-3.19-7.31-.31-13.31.63-13.37,2.07Z"/>
        </g>
        <path class="cls-4" d="M157.36,389.46c.91,1.33,6.38,2.53,13.02,2.82,6.66.28,12.21-.45,13.21-1.7-.89-1.33-6.36-2.53-13.02-2.82-6.64-.28-12.19.45-13.21,1.7Z"/>
      </g>
      <g>
        <g>
          <path class="cls-8" d="M151.94,387.17c-.09,2.13,6.64,4.14,15.03,4.49,8.39.36,15.27-1.08,15.36-3.2.09-2.13-6.64-4.14-15.03-4.49-8.39-.36-15.27,1.08-15.36,3.2Z"/>
          <rect class="cls-8" x="165.29" y="370.68" width="3.85" height="30.42" transform="translate(-225.42 536.58) rotate(-87.57)"/>
        </g>
        <g>
          <path class="cls-8" d="M152.1,383.32c-.09,2.13,6.64,4.14,15.03,4.49,8.39.36,15.27-1.08,15.36-3.2.09-2.13-6.64-4.14-15.03-4.49-8.39-.36-15.27,1.08-15.36,3.2Z"/>
          <path class="cls-5" d="M152.1,383.32c-.09,2.13,6.64,4.14,15.03,4.49,8.39.36,15.27-1.08,15.36-3.2.09-2.13-6.64-4.14-15.03-4.49-8.39-.36-15.27,1.08-15.36,3.2Z"/>
        </g>
        <g>
          <path class="cls-8" d="M154.04,383.25c0,.12.04.28.13.38,1.02-1.25,6.57-1.98,13.21-1.7,6.66.28,12.13,1.49,13.02,2.82.09-.1.16-.24.16-.37.06-1.44-5.82-2.88-13.15-3.19-7.31-.31-13.31.63-13.37,2.07Z"/>
          <path class="cls-4" d="M154.04,383.25c0,.12.04.28.13.38,1.02-1.25,6.57-1.98,13.21-1.7,6.66.28,12.13,1.49,13.02,2.82.09-.1.16-.24.16-.37.06-1.44-5.82-2.88-13.15-3.19-7.31-.31-13.31.63-13.37,2.07Z"/>
        </g>
        <path class="cls-4" d="M154.17,383.63c.91,1.33,6.38,2.53,13.02,2.82,6.66.28,12.21-.45,13.21-1.7-.89-1.33-6.36-2.53-13.02-2.82-6.64-.28-12.19.45-13.21,1.7Z"/>
      </g>
      <g>
        <g>
          <path class="cls-8" d="M110.91,414.75c-.09,2.13,6.64,4.14,15.03,4.49,8.39.36,15.27-1.08,15.36-3.2.09-2.13-6.64-4.14-15.03-4.49-8.39-.36-15.27,1.08-15.36,3.2Z"/>
          <rect class="cls-8" x="124.26" y="398.26" width="3.85" height="30.42" transform="translate(-292.27 521.99) rotate(-87.57)"/>
        </g>
        <g>
          <path class="cls-8" d="M111.07,410.9c-.09,2.13,6.64,4.14,15.03,4.49,8.39.36,15.27-1.08,15.36-3.2.09-2.13-6.64-4.14-15.03-4.49-8.39-.36-15.27,1.08-15.36,3.2Z"/>
          <path class="cls-5" d="M111.07,410.9c-.09,2.13,6.64,4.14,15.03,4.49,8.39.36,15.27-1.08,15.36-3.2.09-2.13-6.64-4.14-15.03-4.49-8.39-.36-15.27,1.08-15.36,3.2Z"/>
        </g>
        <g>
          <path class="cls-8" d="M113.01,410.83c0,.12.04.28.13.38,1.02-1.25,6.57-1.98,13.21-1.7,6.66.28,12.13,1.49,13.02,2.82.09-.1.16-.24.16-.37.06-1.44-5.82-2.88-13.15-3.19-7.31-.31-13.31.63-13.37,2.07Z"/>
          <path class="cls-4" d="M113.01,410.83c0,.12.04.28.13.38,1.02-1.25,6.57-1.98,13.21-1.7,6.66.28,12.13,1.49,13.02,2.82.09-.1.16-.24.16-.37.06-1.44-5.82-2.88-13.15-3.19-7.31-.31-13.31.63-13.37,2.07Z"/>
        </g>
        <path class="cls-4" d="M113.14,411.21c.91,1.33,6.38,2.53,13.02,2.82,6.66.28,12.21-.45,13.21-1.7-.89-1.33-6.36-2.53-13.02-2.82-6.64-.28-12.19.45-13.21,1.7Z"/>
      </g>
      <g>
        <g>
          <path class="cls-8" d="M124.13,411c-.49,2.07,5.73,5.32,13.9,7.27,8.17,1.94,15.19,1.84,15.69-.23.49-2.07-5.73-5.32-13.9-7.27-8.17-1.94-15.2-1.84-15.69.23Z"/>
          <rect class="cls-8" x="137.44" y="397.43" width="3.85" height="30.42" transform="translate(-294.32 452.76) rotate(-76.62)"/>
        </g>
        <g>
          <path class="cls-8" d="M125.02,407.25c-.49,2.07,5.73,5.32,13.9,7.27,8.17,1.94,15.19,1.84,15.69-.23.49-2.07-5.73-5.32-13.9-7.27-8.17-1.94-15.2-1.84-15.69.23Z"/>
          <path class="cls-5" d="M125.02,407.25c-.49,2.07,5.73,5.32,13.9,7.27,8.17,1.94,15.19,1.84,15.69-.23.49-2.07-5.73-5.32-13.9-7.27-8.17-1.94-15.2-1.84-15.69.23Z"/>
        </g>
        <g>
          <path class="cls-8" d="M126.93,407.55c-.03.12-.01.28.05.4,1.23-1.03,6.83-.7,13.29.84,6.48,1.54,11.63,3.76,12.25,5.24.11-.08.2-.21.23-.33.33-1.4-5.17-3.94-12.3-5.63-7.12-1.69-13.19-1.91-13.52-.51Z"/>
          <path class="cls-4" d="M126.93,407.55c-.03.12-.01.28.05.4,1.23-1.03,6.83-.7,13.29.84,6.48,1.54,11.63,3.76,12.25,5.24.11-.08.2-.21.23-.33.33-1.4-5.17-3.94-12.3-5.63-7.12-1.69-13.19-1.91-13.52-.51Z"/>
        </g>
        <path class="cls-4" d="M126.99,407.95c.64,1.48,5.78,3.7,12.25,5.24,6.48,1.54,12.08,1.88,13.29.84-.62-1.48-5.77-3.7-12.25-5.24-6.46-1.54-12.06-1.87-13.29-.84Z"/>
      </g>
    </g>
    <g>
      <g>
        <g>
          <path class="cls-8" d="M356.27,418.49c-.08,2.13-6.94,3.61-15.34,3.3-8.39-.3-15.14-2.27-15.06-4.4.08-2.13,6.94-3.61,15.34-3.31,8.39.3,15.14,2.27,15.06,4.4Z"/>
          <rect class="cls-8" x="339.22" y="400.81" width="3.85" height="30.42" transform="translate(-86.83 742.03) rotate(-87.95)"/>
        </g>
        <g>
          <path class="cls-8" d="M356.41,414.64c-.08,2.13-6.94,3.61-15.34,3.31-8.39-.3-15.14-2.27-15.06-4.4.08-2.13,6.94-3.61,15.34-3.3,8.39.3,15.14,2.27,15.06,4.4Z"/>
          <path class="cls-5" d="M356.41,414.64c-.08,2.13-6.94,3.61-15.34,3.31-8.39-.3-15.14-2.27-15.06-4.4.08-2.13,6.94-3.61,15.34-3.3,8.39.3,15.14,2.27,15.06,4.4Z"/>
        </g>
        <g>
          <path class="cls-8" d="M354.48,414.42c0,.12-.06.27-.16.37-.92-1.33-6.4-2.49-13.04-2.73-6.66-.24-12.21.53-13.2,1.79-.09-.1-.14-.25-.13-.38.05-1.44,6.03-2.42,13.36-2.16,7.31.26,13.22,1.67,13.17,3.11Z"/>
          <path class="cls-4" d="M354.48,414.42c0,.12-.06.27-.16.37-.92-1.33-6.4-2.49-13.04-2.73-6.66-.24-12.21.53-13.2,1.79-.09-.1-.14-.25-.13-.38.05-1.44,6.03-2.42,13.36-2.16,7.31.26,13.22,1.67,13.17,3.11Z"/>
        </g>
        <path class="cls-4" d="M354.32,414.79c-1.01,1.26-6.56,2.03-13.2,1.79-6.66-.24-12.14-1.41-13.04-2.73.99-1.26,6.54-2.03,13.2-1.79,6.64.24,12.12,1.4,13.04,2.73Z"/>
      </g>
      <g>
        <g>
          <path class="cls-8" d="M359.91,412.93c-.08,2.13-6.94,3.61-15.34,3.3-8.39-.3-15.14-2.27-15.06-4.4.08-2.13,6.94-3.61,15.34-3.31,8.39.3,15.14,2.27,15.06,4.4Z"/>
          <rect class="cls-8" x="342.85" y="395.25" width="3.85" height="30.42" transform="translate(-77.79 740.28) rotate(-87.94)"/>
        </g>
        <g>
          <path class="cls-8" d="M360.05,409.08c-.08,2.13-6.94,3.61-15.34,3.31-8.39-.3-15.14-2.27-15.06-4.4.08-2.13,6.94-3.61,15.34-3.31,8.39.3,15.14,2.27,15.06,4.4Z"/>
          <path class="cls-5" d="M360.05,409.08c-.08,2.13-6.94,3.61-15.34,3.31-8.39-.3-15.14-2.27-15.06-4.4.08-2.13,6.94-3.61,15.34-3.31,8.39.3,15.14,2.27,15.06,4.4Z"/>
        </g>
        <g>
          <path class="cls-8" d="M358.12,408.86c0,.12-.06.27-.16.37-.92-1.33-6.4-2.49-13.04-2.73-6.66-.24-12.21.53-13.2,1.79-.09-.1-.14-.25-.13-.38.05-1.44,6.03-2.42,13.36-2.16,7.31.26,13.22,1.67,13.17,3.11Z"/>
          <path class="cls-4" d="M358.12,408.86c0,.12-.06.27-.16.37-.92-1.33-6.4-2.49-13.04-2.73-6.66-.24-12.21.53-13.2,1.79-.09-.1-.14-.25-.13-.38.05-1.44,6.03-2.42,13.36-2.16,7.31.26,13.22,1.67,13.17,3.11Z"/>
        </g>
        <path class="cls-4" d="M357.96,409.22c-1.01,1.26-6.56,2.03-13.2,1.79-6.66-.24-12.14-1.4-13.04-2.73.99-1.26,6.54-2.03,13.2-1.79,6.64.24,12.12,1.4,13.04,2.73Z"/>
      </g>
      <g>
        <g>
          <path class="cls-8" d="M360.05,405.89c-.08,2.13-6.94,3.61-15.34,3.3-8.39-.3-15.14-2.27-15.06-4.4.08-2.13,6.94-3.61,15.34-3.31,8.39.3,15.14,2.27,15.06,4.4Z"/>
          <rect class="cls-8" x="342.99" y="388.21" width="3.85" height="30.42" transform="translate(-70.63 733.64) rotate(-87.94)"/>
        </g>
        <g>
          <path class="cls-8" d="M360.19,402.04c-.08,2.13-6.94,3.61-15.34,3.31-8.39-.3-15.14-2.27-15.06-4.4.08-2.13,6.94-3.61,15.34-3.3,8.39.3,15.14,2.27,15.06,4.4Z"/>
          <path class="cls-5" d="M360.19,402.04c-.08,2.13-6.94,3.61-15.34,3.31-8.39-.3-15.14-2.27-15.06-4.4.08-2.13,6.94-3.61,15.34-3.3,8.39.3,15.14,2.27,15.06,4.4Z"/>
        </g>
        <g>
          <path class="cls-8" d="M358.26,401.83c0,.12-.06.27-.16.37-.92-1.33-6.4-2.49-13.04-2.73-6.66-.24-12.21.53-13.2,1.79-.09-.1-.14-.25-.13-.38.05-1.44,6.03-2.42,13.36-2.16,7.31.26,13.22,1.67,13.17,3.11Z"/>
          <path class="cls-4" d="M358.26,401.83c0,.12-.06.27-.16.37-.92-1.33-6.4-2.49-13.04-2.73-6.66-.24-12.21.53-13.2,1.79-.09-.1-.14-.25-.13-.38.05-1.44,6.03-2.42,13.36-2.16,7.31.26,13.22,1.67,13.17,3.11Z"/>
        </g>
        <path class="cls-4" d="M358.1,402.19c-1.01,1.26-6.56,2.03-13.2,1.79-6.66-.24-12.14-1.41-13.04-2.73.99-1.26,6.54-2.03,13.2-1.79,6.64.24,12.12,1.4,13.04,2.73Z"/>
      </g>
      <g>
        <g>
          <path class="cls-8" d="M363.69,400.33c-.08,2.13-6.94,3.61-15.34,3.3-8.39-.3-15.14-2.27-15.06-4.4.08-2.13,6.94-3.61,15.34-3.31,8.39.3,15.14,2.27,15.06,4.4Z"/>
          <rect class="cls-8" x="346.63" y="382.65" width="3.85" height="30.42" transform="translate(-61.54 731.94) rotate(-87.95)"/>
        </g>
        <g>
          <path class="cls-8" d="M363.82,396.48c-.08,2.13-6.94,3.61-15.34,3.31-8.39-.3-15.14-2.27-15.06-4.4.08-2.13,6.94-3.61,15.34-3.3,8.39.3,15.14,2.27,15.06,4.4Z"/>
          <path class="cls-5" d="M363.82,396.48c-.08,2.13-6.94,3.61-15.34,3.31-8.39-.3-15.14-2.27-15.06-4.4.08-2.13,6.94-3.61,15.34-3.3,8.39.3,15.14,2.27,15.06,4.4Z"/>
        </g>
        <g>
          <path class="cls-8" d="M361.9,396.27c0,.12-.06.27-.16.37-.92-1.33-6.4-2.49-13.04-2.73-6.66-.24-12.21.53-13.2,1.79-.09-.1-.14-.25-.13-.38.05-1.44,6.03-2.42,13.36-2.16,7.31.26,13.22,1.67,13.17,3.11Z"/>
          <path class="cls-4" d="M361.9,396.27c0,.12-.06.27-.16.37-.92-1.33-6.4-2.49-13.04-2.73-6.66-.24-12.21.53-13.2,1.79-.09-.1-.14-.25-.13-.38.05-1.44,6.03-2.42,13.36-2.16,7.31.26,13.22,1.67,13.17,3.11Z"/>
        </g>
        <path class="cls-4" d="M361.74,396.63c-1.01,1.26-6.56,2.03-13.2,1.79-6.66-.24-12.14-1.41-13.04-2.73.99-1.26,6.54-2.03,13.2-1.79,6.64.24,12.12,1.4,13.04,2.73Z"/>
      </g>
    </g>
    <g>
      <g>
        <g>
          <path class="cls-8" d="M242.97,414.21c-.09,2.13,6.64,4.14,15.03,4.49,8.39.36,15.27-1.08,15.36-3.2.09-2.13-6.64-4.14-15.03-4.49-8.39-.36-15.27,1.08-15.36,3.2Z"/>
          <rect class="cls-8" x="256.32" y="397.72" width="3.85" height="30.42" transform="translate(-165.28 653.42) rotate(-87.57)"/>
        </g>
        <g>
          <path class="cls-8" d="M243.13,410.36c-.09,2.13,6.64,4.14,15.03,4.5,8.39.36,15.27-1.08,15.36-3.2.09-2.13-6.64-4.14-15.03-4.49-8.39-.36-15.27,1.08-15.36,3.2Z"/>
          <path class="cls-5" d="M243.13,410.36c-.09,2.13,6.64,4.14,15.03,4.5,8.39.36,15.27-1.08,15.36-3.2.09-2.13-6.64-4.14-15.03-4.49-8.39-.36-15.27,1.08-15.36,3.2Z"/>
        </g>
        <g>
          <path class="cls-8" d="M245.07,410.3c0,.12.04.28.13.38,1.02-1.25,6.57-1.98,13.21-1.7,6.66.28,12.13,1.49,13.02,2.82.09-.1.16-.24.16-.37.06-1.44-5.82-2.88-13.15-3.19-7.31-.31-13.31.63-13.37,2.07Z"/>
          <path class="cls-4" d="M245.07,410.3c0,.12.04.28.13.38,1.02-1.25,6.57-1.98,13.21-1.7,6.66.28,12.13,1.49,13.02,2.82.09-.1.16-.24.16-.37.06-1.44-5.82-2.88-13.15-3.19-7.31-.31-13.31.63-13.37,2.07Z"/>
        </g>
        <path class="cls-4" d="M245.2,410.67c.91,1.33,6.38,2.53,13.02,2.82,6.66.28,12.21-.45,13.21-1.7-.89-1.33-6.36-2.53-13.02-2.82-6.64-.28-12.19.45-13.21,1.7Z"/>
      </g>
      <g>
        <g>
          <path class="cls-8" d="M239.77,408.38c-.09,2.13,6.64,4.14,15.03,4.49,8.39.36,15.27-1.08,15.36-3.2.09-2.13-6.64-4.14-15.03-4.49-8.39-.36-15.27,1.08-15.36,3.2Z"/>
          <rect class="cls-8" x="253.12" y="391.89" width="3.85" height="30.42" transform="translate(-162.5 644.67) rotate(-87.57)"/>
        </g>
        <g>
          <path class="cls-8" d="M239.94,404.53c-.09,2.13,6.64,4.14,15.03,4.49,8.39.36,15.27-1.08,15.36-3.2.09-2.13-6.64-4.14-15.03-4.49-8.39-.36-15.27,1.08-15.36,3.2Z"/>
          <path class="cls-5" d="M239.94,404.53c-.09,2.13,6.64,4.14,15.03,4.49,8.39.36,15.27-1.08,15.36-3.2.09-2.13-6.64-4.14-15.03-4.49-8.39-.36-15.27,1.08-15.36,3.2Z"/>
        </g>
        <g>
          <path class="cls-8" d="M241.87,404.47c0,.12.04.28.13.38,1.02-1.25,6.57-1.98,13.21-1.7,6.66.28,12.13,1.49,13.02,2.82.09-.1.16-.24.16-.37.06-1.44-5.82-2.88-13.15-3.19-7.31-.31-13.31.63-13.37,2.07Z"/>
          <path class="cls-4" d="M241.87,404.47c0,.12.04.28.13.38,1.02-1.25,6.57-1.98,13.21-1.7,6.66.28,12.13,1.49,13.02,2.82.09-.1.16-.24.16-.37.06-1.44-5.82-2.88-13.15-3.19-7.31-.31-13.31.63-13.37,2.07Z"/>
        </g>
        <path class="cls-4" d="M242,404.85c.91,1.33,6.38,2.53,13.02,2.82,6.66.28,12.21-.45,13.21-1.7-.89-1.33-6.36-2.53-13.02-2.82-6.64-.28-12.19.45-13.21,1.7Z"/>
      </g>
      <g>
        <g>
          <path class="cls-8" d="M240.19,401.36c-.09,2.13,6.64,4.14,15.03,4.49,8.39.36,15.27-1.08,15.36-3.2.09-2.13-6.64-4.14-15.03-4.49-8.39-.36-15.27,1.08-15.36,3.2Z"/>
          <rect class="cls-8" x="253.54" y="384.87" width="3.85" height="30.42" transform="translate(-155.09 638.35) rotate(-87.57)"/>
        </g>
        <g>
          <path class="cls-8" d="M240.35,397.51c-.09,2.13,6.64,4.14,15.03,4.49,8.39.36,15.27-1.08,15.36-3.2.09-2.13-6.64-4.14-15.03-4.49-8.39-.36-15.27,1.08-15.36,3.2Z"/>
          <path class="cls-5" d="M240.35,397.51c-.09,2.13,6.64,4.14,15.03,4.49,8.39.36,15.27-1.08,15.36-3.2.09-2.13-6.64-4.14-15.03-4.49-8.39-.36-15.27,1.08-15.36,3.2Z"/>
        </g>
        <g>
          <path class="cls-8" d="M242.29,397.45c0,.12.04.28.13.38,1.02-1.25,6.57-1.98,13.21-1.7,6.66.28,12.13,1.49,13.02,2.82.09-.1.16-.24.16-.37.06-1.44-5.82-2.88-13.15-3.19-7.31-.31-13.31.63-13.37,2.07Z"/>
          <path class="cls-4" d="M242.29,397.45c0,.12.04.28.13.38,1.02-1.25,6.57-1.98,13.21-1.7,6.66.28,12.13,1.49,13.02,2.82.09-.1.16-.24.16-.37.06-1.44-5.82-2.88-13.15-3.19-7.31-.31-13.31.63-13.37,2.07Z"/>
        </g>
        <path class="cls-4" d="M242.42,397.82c.91,1.33,6.38,2.53,13.02,2.82,6.66.28,12.21-.45,13.21-1.7-.89-1.33-6.36-2.53-13.02-2.82-6.64-.28-12.19.45-13.21,1.7Z"/>
      </g>
      <g>
        <g>
          <path class="cls-8" d="M236.99,395.53c-.09,2.13,6.64,4.14,15.03,4.49,8.39.36,15.27-1.08,15.36-3.2.09-2.13-6.64-4.14-15.03-4.49-8.39-.36-15.27,1.08-15.36,3.2Z"/>
          <rect class="cls-8" x="250.34" y="379.05" width="3.85" height="30.42" transform="translate(-152.34 629.56) rotate(-87.57)"/>
        </g>
        <g>
          <path class="cls-8" d="M237.16,391.68c-.09,2.13,6.64,4.14,15.03,4.49,8.39.36,15.27-1.08,15.36-3.2.09-2.13-6.64-4.14-15.03-4.49-8.39-.36-15.27,1.08-15.36,3.2Z"/>
          <path class="cls-5" d="M237.16,391.68c-.09,2.13,6.64,4.14,15.03,4.49,8.39.36,15.27-1.08,15.36-3.2.09-2.13-6.64-4.14-15.03-4.49-8.39-.36-15.27,1.08-15.36,3.2Z"/>
        </g>
        <g>
          <path class="cls-8" d="M239.1,391.62c0,.12.04.28.13.38,1.02-1.25,6.57-1.98,13.21-1.7,6.66.28,12.13,1.49,13.02,2.82.09-.1.16-.24.16-.37.06-1.44-5.82-2.88-13.15-3.19-7.31-.31-13.31.63-13.37,2.07Z"/>
          <path class="cls-4" d="M239.1,391.62c0,.12.04.28.13.38,1.02-1.25,6.57-1.98,13.21-1.7,6.66.28,12.13,1.49,13.02,2.82.09-.1.16-.24.16-.37.06-1.44-5.82-2.88-13.15-3.19-7.31-.31-13.31.63-13.37,2.07Z"/>
        </g>
        <path class="cls-4" d="M239.22,392c.91,1.33,6.38,2.53,13.02,2.82,6.66.28,12.21-.45,13.21-1.7-.89-1.33-6.36-2.53-13.02-2.82-6.64-.28-12.19.45-13.21,1.7Z"/>
      </g>
      <g>
        <g>
          <path class="cls-8" d="M241.87,390.59c-.09,2.13,6.64,4.14,15.03,4.49,8.39.36,15.27-1.08,15.36-3.2.09-2.13-6.64-4.14-15.03-4.49-8.39-.36-15.27,1.08-15.36,3.2Z"/>
          <rect class="cls-8" x="255.22" y="374.11" width="3.85" height="30.42" transform="translate(-142.72 629.72) rotate(-87.57)"/>
        </g>
        <g>
          <path class="cls-8" d="M242.03,386.74c-.09,2.13,6.64,4.14,15.03,4.5,8.39.36,15.27-1.08,15.36-3.2.09-2.13-6.64-4.14-15.03-4.49-8.39-.36-15.27,1.08-15.36,3.2Z"/>
          <path class="cls-5" d="M242.03,386.74c-.09,2.13,6.64,4.14,15.03,4.5,8.39.36,15.27-1.08,15.36-3.2.09-2.13-6.64-4.14-15.03-4.49-8.39-.36-15.27,1.08-15.36,3.2Z"/>
        </g>
        <g>
          <path class="cls-8" d="M243.97,386.68c0,.12.04.28.13.38,1.02-1.25,6.57-1.98,13.21-1.7,6.66.28,12.13,1.49,13.02,2.82.09-.1.16-.24.16-.37.06-1.44-5.82-2.88-13.15-3.19-7.31-.31-13.31.63-13.37,2.07Z"/>
          <path class="cls-4" d="M243.97,386.68c0,.12.04.28.13.38,1.02-1.25,6.57-1.98,13.21-1.7,6.66.28,12.13,1.49,13.02,2.82.09-.1.16-.24.16-.37.06-1.44-5.82-2.88-13.15-3.19-7.31-.31-13.31.63-13.37,2.07Z"/>
        </g>
        <path class="cls-4" d="M244.1,387.06c.91,1.33,6.38,2.53,13.02,2.82,6.66.28,12.21-.45,13.21-1.7-.89-1.33-6.36-2.53-13.02-2.82-6.64-.28-12.19.45-13.21,1.7Z"/>
      </g>
      <g>
        <g>
          <path class="cls-8" d="M238.68,384.77c-.09,2.13,6.64,4.14,15.03,4.49,8.39.36,15.27-1.08,15.36-3.2.09-2.13-6.64-4.14-15.03-4.49-8.39-.36-15.27,1.08-15.36,3.2Z"/>
          <rect class="cls-8" x="252.03" y="368.28" width="3.85" height="30.42" transform="translate(-139.97 620.94) rotate(-87.57)"/>
        </g>
        <g>
          <path class="cls-8" d="M238.84,380.92c-.09,2.13,6.64,4.14,15.03,4.49,8.39.36,15.27-1.08,15.36-3.2.09-2.13-6.64-4.14-15.03-4.49-8.39-.36-15.27,1.08-15.36,3.2Z"/>
          <path class="cls-5" d="M238.84,380.92c-.09,2.13,6.64,4.14,15.03,4.49,8.39.36,15.27-1.08,15.36-3.2.09-2.13-6.64-4.14-15.03-4.49-8.39-.36-15.27,1.08-15.36,3.2Z"/>
        </g>
        <g>
          <path class="cls-8" d="M240.78,380.85c0,.12.04.28.13.38,1.02-1.25,6.57-1.98,13.21-1.7,6.66.28,12.13,1.49,13.02,2.82.09-.1.16-.24.16-.37.06-1.44-5.82-2.88-13.15-3.19-7.31-.31-13.31.63-13.37,2.07Z"/>
          <path class="cls-4" d="M240.78,380.85c0,.12.04.28.13.38,1.02-1.25,6.57-1.98,13.21-1.7,6.66.28,12.13,1.49,13.02,2.82.09-.1.16-.24.16-.37.06-1.44-5.82-2.88-13.15-3.19-7.31-.31-13.31.63-13.37,2.07Z"/>
        </g>
        <path class="cls-4" d="M240.91,381.23c.91,1.33,6.38,2.53,13.02,2.82,6.66.28,12.21-.45,13.21-1.7-.89-1.33-6.36-2.53-13.02-2.82-6.64-.28-12.19.45-13.21,1.7Z"/>
      </g>
    </g>
    <g>
      <g>
        <g>
          <path class="cls-8" d="M272.25,380.63c.09,2.13-6.64,4.14-15.03,4.49-8.39.36-15.27-1.08-15.36-3.2-.09-2.13,6.64-4.14,15.03-4.49,8.39-.36,15.27,1.08,15.36,3.2Z"/>
          <rect class="cls-8" x="241.76" y="377.42" width="30.42" height="3.85" transform="translate(-15.87 11.25) rotate(-2.43)"/>
        </g>
        <g>
          <path class="cls-8" d="M272.08,376.78c.09,2.13-6.64,4.14-15.03,4.5-8.39.36-15.27-1.08-15.36-3.2-.09-2.13,6.64-4.14,15.03-4.49,8.39-.36,15.27,1.08,15.36,3.2Z"/>
          <path class="cls-5" d="M272.08,376.78c.09,2.13-6.64,4.14-15.03,4.5-8.39.36-15.27-1.08-15.36-3.2-.09-2.13,6.64-4.14,15.03-4.49,8.39-.36,15.27,1.08,15.36,3.2Z"/>
        </g>
        <g>
          <path class="cls-8" d="M270.14,376.71c0,.12-.04.28-.13.38-1.02-1.25-6.57-1.98-13.21-1.7-6.66.28-12.13,1.49-13.02,2.82-.09-.1-.16-.24-.16-.37-.06-1.44,5.82-2.88,13.15-3.19,7.31-.31,13.31.63,13.37,2.07Z"/>
          <path class="cls-4" d="M270.14,376.71c0,.12-.04.28-.13.38-1.02-1.25-6.57-1.98-13.21-1.7-6.66.28-12.13,1.49-13.02,2.82-.09-.1-.16-.24-.16-.37-.06-1.44,5.82-2.88,13.15-3.19,7.31-.31,13.31.63,13.37,2.07Z"/>
        </g>
        <path class="cls-4" d="M270.01,377.09c-.91,1.33-6.38,2.53-13.02,2.82-6.66.28-12.21-.45-13.21-1.7.89-1.33,6.36-2.53,13.02-2.82,6.64-.28,12.19.45,13.21,1.7Z"/>
      </g>
      <g>
        <g>
          <path class="cls-8" d="M275.44,374.8c.09,2.13-6.64,4.14-15.03,4.49-8.39.36-15.27-1.08-15.36-3.2-.09-2.13,6.64-4.14,15.03-4.49,8.39-.36,15.27,1.08,15.36,3.2Z"/>
          <rect class="cls-8" x="244.95" y="371.59" width="30.42" height="3.85" transform="translate(-15.6 11.36) rotate(-2.43)"/>
        </g>
        <g>
          <path class="cls-8" d="M275.27,370.95c.09,2.13-6.64,4.14-15.03,4.49-8.39.36-15.27-1.08-15.36-3.2-.09-2.13,6.64-4.14,15.03-4.49,8.39-.36,15.27,1.08,15.36,3.2Z"/>
          <path class="cls-5" d="M275.27,370.95c.09,2.13-6.64,4.14-15.03,4.49-8.39.36-15.27-1.08-15.36-3.2-.09-2.13,6.64-4.14,15.03-4.49,8.39-.36,15.27,1.08,15.36,3.2Z"/>
        </g>
        <g>
          <path class="cls-8" d="M273.34,370.88c0,.12-.04.28-.13.38-1.02-1.25-6.57-1.98-13.21-1.7-6.66.28-12.13,1.49-13.02,2.82-.09-.1-.16-.24-.16-.37-.06-1.44,5.82-2.88,13.15-3.19,7.31-.31,13.31.63,13.37,2.07Z"/>
          <path class="cls-4" d="M273.34,370.88c0,.12-.04.28-.13.38-1.02-1.25-6.57-1.98-13.21-1.7-6.66.28-12.13,1.49-13.02,2.82-.09-.1-.16-.24-.16-.37-.06-1.44,5.82-2.88,13.15-3.19,7.31-.31,13.31.63,13.37,2.07Z"/>
        </g>
        <path class="cls-4" d="M273.21,371.26c-.91,1.33-6.38,2.53-13.02,2.82-6.66.28-12.21-.45-13.21-1.7.89-1.33,6.36-2.53,13.02-2.82,6.64-.28,12.19.45,13.21,1.7Z"/>
      </g>
      <g>
        <g>
          <path class="cls-8" d="M275.02,367.78c.09,2.13-6.64,4.14-15.03,4.49-8.39.36-15.27-1.08-15.36-3.2-.09-2.13,6.64-4.14,15.03-4.49,8.39-.36,15.27,1.08,15.36,3.2Z"/>
          <rect class="cls-8" x="244.54" y="364.57" width="30.42" height="3.85" transform="translate(-15.31 11.35) rotate(-2.43)"/>
        </g>
        <g>
          <path class="cls-8" d="M274.86,363.93c.09,2.13-6.64,4.14-15.03,4.49-8.39.36-15.27-1.08-15.36-3.2-.09-2.13,6.64-4.14,15.03-4.49,8.39-.36,15.27,1.08,15.36,3.2Z"/>
          <path class="cls-5" d="M274.86,363.93c.09,2.13-6.64,4.14-15.03,4.49-8.39.36-15.27-1.08-15.36-3.2-.09-2.13,6.64-4.14,15.03-4.49,8.39-.36,15.27,1.08,15.36,3.2Z"/>
        </g>
        <g>
          <path class="cls-8" d="M272.92,363.86c0,.12-.04.28-.13.38-1.02-1.25-6.57-1.98-13.21-1.7-6.66.28-12.13,1.49-13.02,2.82-.09-.1-.16-.24-.16-.37-.06-1.44,5.82-2.88,13.15-3.19,7.31-.31,13.31.63,13.37,2.07Z"/>
          <path class="cls-4" d="M272.92,363.86c0,.12-.04.28-.13.38-1.02-1.25-6.57-1.98-13.21-1.7-6.66.28-12.13,1.49-13.02,2.82-.09-.1-.16-.24-.16-.37-.06-1.44,5.82-2.88,13.15-3.19,7.31-.31,13.31.63,13.37,2.07Z"/>
        </g>
        <path class="cls-4" d="M272.79,364.24c-.91,1.33-6.38,2.53-13.02,2.82-6.66.28-12.21-.45-13.21-1.7.89-1.33,6.36-2.53,13.02-2.82,6.64-.28,12.19.45,13.21,1.7Z"/>
      </g>
      <g>
        <g>
          <path class="cls-8" d="M278.22,361.95c.09,2.13-6.64,4.14-15.03,4.49-8.39.36-15.27-1.08-15.36-3.2-.09-2.13,6.64-4.14,15.03-4.49,8.39-.36,15.27,1.08,15.36,3.2Z"/>
          <rect class="cls-8" x="247.73" y="358.74" width="30.42" height="3.85" transform="translate(-15.08 11.49) rotate(-2.43)"/>
        </g>
        <g>
          <path class="cls-8" d="M278.05,358.1c.09,2.13-6.64,4.14-15.03,4.49-8.39.36-15.27-1.08-15.36-3.2-.09-2.13,6.64-4.14,15.03-4.49,8.39-.36,15.27,1.08,15.36,3.2Z"/>
          <path class="cls-5" d="M278.05,358.1c.09,2.13-6.64,4.14-15.03,4.49-8.39.36-15.27-1.08-15.36-3.2-.09-2.13,6.64-4.14,15.03-4.49,8.39-.36,15.27,1.08,15.36,3.2Z"/>
        </g>
        <g>
          <path class="cls-8" d="M276.12,358.04c0,.12-.04.28-.13.38-1.02-1.25-6.57-1.98-13.21-1.7-6.66.28-12.13,1.49-13.02,2.82-.09-.1-.16-.24-.16-.37-.06-1.44,5.82-2.88,13.15-3.19,7.31-.31,13.31.63,13.37,2.07Z"/>
          <path class="cls-4" d="M276.12,358.04c0,.12-.04.28-.13.38-1.02-1.25-6.57-1.98-13.21-1.7-6.66.28-12.13,1.49-13.02,2.82-.09-.1-.16-.24-.16-.37-.06-1.44,5.82-2.88,13.15-3.19,7.31-.31,13.31.63,13.37,2.07Z"/>
        </g>
        <path class="cls-4" d="M275.99,358.41c-.91,1.33-6.38,2.53-13.02,2.82-6.66.28-12.21-.45-13.21-1.7.89-1.33,6.36-2.53,13.02-2.82,6.64-.28,12.19.45,13.21,1.7Z"/>
      </g>
      <g>
        <g>
          <path class="cls-8" d="M273.34,357.01c.09,2.13-6.64,4.14-15.03,4.49-8.39.36-15.27-1.08-15.36-3.2-.09-2.13,6.64-4.14,15.03-4.49,8.39-.36,15.27,1.08,15.36,3.2Z"/>
          <rect class="cls-8" x="242.86" y="353.8" width="30.42" height="3.85" transform="translate(-14.85 11.26) rotate(-2.43)"/>
        </g>
        <g>
          <path class="cls-8" d="M273.18,353.16c.09,2.13-6.64,4.14-15.03,4.5-8.39.36-15.27-1.08-15.36-3.2-.09-2.13,6.64-4.14,15.03-4.49,8.39-.36,15.27,1.08,15.36,3.2Z"/>
          <path class="cls-5" d="M273.18,353.16c.09,2.13-6.64,4.14-15.03,4.5-8.39.36-15.27-1.08-15.36-3.2-.09-2.13,6.64-4.14,15.03-4.49,8.39-.36,15.27,1.08,15.36,3.2Z"/>
        </g>
        <g>
          <path class="cls-8" d="M271.24,353.1c0,.12-.04.28-.13.38-1.02-1.25-6.57-1.98-13.21-1.7-6.66.28-12.13,1.49-13.02,2.82-.09-.1-.16-.24-.16-.37-.06-1.44,5.82-2.88,13.15-3.19,7.31-.31,13.31.63,13.37,2.07Z"/>
          <path class="cls-4" d="M271.24,353.1c0,.12-.04.28-.13.38-1.02-1.25-6.57-1.98-13.21-1.7-6.66.28-12.13,1.49-13.02,2.82-.09-.1-.16-.24-.16-.37-.06-1.44,5.82-2.88,13.15-3.19,7.31-.31,13.31.63,13.37,2.07Z"/>
        </g>
        <path class="cls-4" d="M271.11,353.47c-.91,1.33-6.38,2.53-13.02,2.82-6.66.28-12.21-.45-13.21-1.7.89-1.33,6.36-2.53,13.02-2.82,6.64-.28,12.19.45,13.21,1.7Z"/>
      </g>
      <g>
        <g>
          <path class="cls-8" d="M276.54,351.18c.09,2.13-6.64,4.14-15.03,4.49-8.39.36-15.27-1.08-15.36-3.2-.09-2.13,6.64-4.14,15.03-4.49,8.39-.36,15.27,1.08,15.36,3.2Z"/>
          <rect class="cls-8" x="246.05" y="347.98" width="30.42" height="3.85" transform="translate(-14.61 11.4) rotate(-2.43)"/>
        </g>
        <g>
          <path class="cls-8" d="M276.37,347.33c.09,2.13-6.64,4.14-15.03,4.49-8.39.36-15.27-1.08-15.36-3.2-.09-2.13,6.64-4.14,15.03-4.49,8.39-.36,15.27,1.08,15.36,3.2Z"/>
          <path class="cls-5" d="M276.37,347.33c.09,2.13-6.64,4.14-15.03,4.49-8.39.36-15.27-1.08-15.36-3.2-.09-2.13,6.64-4.14,15.03-4.49,8.39-.36,15.27,1.08,15.36,3.2Z"/>
        </g>
        <g>
          <path class="cls-8" d="M274.43,347.27c0,.12-.04.28-.13.38-1.02-1.25-6.57-1.98-13.21-1.7-6.66.28-12.13,1.49-13.02,2.82-.09-.1-.16-.24-.16-.37-.06-1.44,5.82-2.88,13.15-3.19,7.31-.31,13.31.63,13.37,2.07Z"/>
          <path class="cls-4" d="M274.43,347.27c0,.12-.04.28-.13.38-1.02-1.25-6.57-1.98-13.21-1.7-6.66.28-12.13,1.49-13.02,2.82-.09-.1-.16-.24-.16-.37-.06-1.44,5.82-2.88,13.15-3.19,7.31-.31,13.31.63,13.37,2.07Z"/>
        </g>
        <path class="cls-4" d="M274.3,347.65c-.91,1.33-6.38,2.53-13.02,2.82-6.66.28-12.21-.45-13.21-1.7.89-1.33,6.36-2.53,13.02-2.82,6.64-.28,12.19.45,13.21,1.7Z"/>
      </g>
    </g>
    <g>
      <g>
        <path class="cls-8" d="M389.7,412.22c-.31,1.25-4.55,1.26-9.47.03-4.92-1.23-8.66-3.24-8.34-4.49.31-1.25,4.55-1.26,9.47-.03,4.92,1.23,8.66,3.24,8.34,4.49Z"/>
        <rect class="cls-8" x="379.91" y="399.68" width="2.33" height="18.37" transform="translate(-108.11 679.2) rotate(-75.94)"/>
      </g>
      <g>
        <path class="cls-8" d="M390.27,409.96c-.31,1.25-4.55,1.26-9.47.03-4.92-1.23-8.66-3.24-8.34-4.49.31-1.25,4.55-1.26,9.47-.03,4.92,1.23,8.66,3.24,8.34,4.49Z"/>
        <path class="cls-5" d="M390.27,409.96c-.31,1.25-4.55,1.26-9.47.03-4.92-1.23-8.66-3.24-8.34-4.49.31-1.25,4.55-1.26,9.47-.03,4.92,1.23,8.66,3.24,8.34,4.49Z"/>
      </g>
      <g>
        <path class="cls-8" d="M389.15,409.59c-.02.07-.07.15-.14.2-.37-.9-3.47-2.28-7.36-3.25-3.9-.98-7.28-1.22-8.02-.6-.04-.07-.05-.17-.03-.24.21-.84,3.86-.67,8.16.4,4.29,1.07,7.6,2.65,7.39,3.49Z"/>
        <path class="cls-4" d="M389.15,409.59c-.02.07-.07.15-.14.2-.37-.9-3.47-2.28-7.36-3.25-3.9-.98-7.28-1.22-8.02-.6-.04-.07-.05-.17-.03-.24.21-.84,3.86-.67,8.16.4,4.29,1.07,7.6,2.65,7.39,3.49Z"/>
      </g>
      <path class="cls-4" d="M389.01,409.79c-.75.62-4.13.37-8.02-.6-3.9-.98-6.99-2.35-7.36-3.25.74-.62,4.12-.38,8.02.6,3.89.97,6.98,2.35,7.36,3.25Z"/>
    </g>
    <g>
      <g>
        <path class="cls-8" d="M398.26,416.32c.05,1.28-4.01,2.5-9.08,2.71-5.07.22-9.22-.65-9.27-1.93-.05-1.28,4.01-2.5,9.08-2.71,5.07-.22,9.22.65,9.27,1.93Z"/>
        <rect class="cls-8" x="379.85" y="414.38" width="18.37" height="2.33" transform="translate(-17.29 16.89) rotate(-2.43)"/>
      </g>
      <g>
        <path class="cls-8" d="M398.16,413.99c.05,1.28-4.01,2.5-9.08,2.71-5.07.22-9.22-.65-9.27-1.93-.05-1.28,4.01-2.5,9.08-2.71,5.07-.22,9.22.65,9.27,1.93Z"/>
        <path class="cls-5" d="M398.16,413.99c.05,1.28-4.01,2.5-9.08,2.71-5.07.22-9.22-.65-9.27-1.93-.05-1.28,4.01-2.5,9.08-2.71,5.07-.22,9.22.65,9.27,1.93Z"/>
      </g>
      <g>
        <path class="cls-8" d="M396.99,413.95c0,.08-.03.17-.08.23-.61-.75-3.97-1.2-7.98-1.03-4.02.17-7.33.9-7.86,1.7-.06-.06-.09-.15-.1-.22-.04-.87,3.51-1.74,7.94-1.93,4.41-.19,8.04.38,8.08,1.25Z"/>
        <path class="cls-4" d="M396.99,413.95c0,.08-.03.17-.08.23-.61-.75-3.97-1.2-7.98-1.03-4.02.17-7.33.9-7.86,1.7-.06-.06-.09-.15-.1-.22-.04-.87,3.51-1.74,7.94-1.93,4.41-.19,8.04.38,8.08,1.25Z"/>
      </g>
      <path class="cls-4" d="M396.91,414.18c-.55.8-3.85,1.53-7.86,1.7-4.02.17-7.38-.27-7.98-1.03.54-.8,3.84-1.53,7.86-1.7,4.01-.17,7.36.27,7.98,1.03Z"/>
    </g>
    <g>
      <g>
        <g>
          <path class="cls-8" d="M208.78,417.59c-.05,1.28,4.01,2.5,9.08,2.71,5.07.22,9.22-.65,9.27-1.93.05-1.28-4.01-2.5-9.08-2.71-5.07-.22-9.22.65-9.27,1.93Z"/>
          <rect class="cls-8" x="216.84" y="407.63" width="2.33" height="18.37" transform="translate(-207.67 616.96) rotate(-87.57)"/>
        </g>
        <g>
          <path class="cls-8" d="M208.88,415.26c-.05,1.28,4.01,2.5,9.08,2.71,5.07.22,9.22-.65,9.27-1.93.05-1.28-4.01-2.5-9.08-2.71-5.07-.22-9.22.65-9.27,1.93Z"/>
          <path class="cls-5" d="M208.88,415.26c-.05,1.28,4.01,2.5,9.08,2.71,5.07.22,9.22-.65,9.27-1.93.05-1.28-4.01-2.5-9.08-2.71-5.07-.22-9.22.65-9.27,1.93Z"/>
        </g>
        <g>
          <path class="cls-8" d="M210.05,415.22c0,.08.03.17.08.23.61-.75,3.97-1.2,7.98-1.03,4.02.17,7.33.9,7.86,1.7.06-.06.09-.15.1-.22.04-.87-3.51-1.74-7.94-1.93-4.41-.19-8.04.38-8.08,1.25Z"/>
          <path class="cls-4" d="M210.05,415.22c0,.08.03.17.08.23.61-.75,3.97-1.2,7.98-1.03,4.02.17,7.33.9,7.86,1.7.06-.06.09-.15.1-.22.04-.87-3.51-1.74-7.94-1.93-4.41-.19-8.04.38-8.08,1.25Z"/>
        </g>
        <path class="cls-4" d="M210.13,415.45c.55.8,3.85,1.53,7.86,1.7,4.02.17,7.38-.27,7.98-1.03-.54-.8-3.84-1.53-7.86-1.7-4.01-.17-7.36.27-7.98,1.03Z"/>
      </g>
      <g>
        <g>
          <path class="cls-8" d="M206.85,414.07c-.05,1.28,4.01,2.5,9.08,2.71,5.07.22,9.22-.65,9.27-1.93.05-1.28-4.01-2.5-9.08-2.71-5.07-.22-9.22.65-9.27,1.93Z"/>
          <rect class="cls-8" x="214.91" y="404.11" width="2.33" height="18.37" transform="translate(-206.02 611.63) rotate(-87.57)"/>
        </g>
        <g>
          <path class="cls-8" d="M206.95,411.74c-.05,1.28,4.01,2.5,9.08,2.71,5.07.22,9.22-.65,9.27-1.93.05-1.28-4.01-2.5-9.08-2.71-5.07-.22-9.22.65-9.27,1.93Z"/>
          <path class="cls-5" d="M206.95,411.74c-.05,1.28,4.01,2.5,9.08,2.71,5.07.22,9.22-.65,9.27-1.93.05-1.28-4.01-2.5-9.08-2.71-5.07-.22-9.22.65-9.27,1.93Z"/>
        </g>
        <g>
          <path class="cls-8" d="M208.12,411.7c0,.08.03.17.08.23.61-.75,3.97-1.2,7.98-1.03,4.02.17,7.33.9,7.86,1.7.06-.06.09-.15.1-.22.04-.87-3.51-1.74-7.94-1.93-4.41-.19-8.04.38-8.08,1.25Z"/>
          <path class="cls-4" d="M208.12,411.7c0,.08.03.17.08.23.61-.75,3.97-1.2,7.98-1.03,4.02.17,7.33.9,7.86,1.7.06-.06.09-.15.1-.22.04-.87-3.51-1.74-7.94-1.93-4.41-.19-8.04.38-8.08,1.25Z"/>
        </g>
        <path class="cls-4" d="M208.2,411.93c.55.8,3.85,1.53,7.86,1.7,4.02.17,7.38-.27,7.98-1.03-.54-.8-3.84-1.53-7.86-1.7-4.01-.17-7.36.27-7.98,1.03Z"/>
      </g>
      <g>
        <g>
          <path class="cls-8" d="M207.1,409.83c-.05,1.28,4.01,2.5,9.08,2.71,5.07.22,9.22-.65,9.27-1.93.05-1.28-4.01-2.5-9.08-2.71-5.07-.22-9.22.65-9.27,1.93Z"/>
          <rect class="cls-8" x="215.16" y="399.87" width="2.33" height="18.37" transform="translate(-201.55 607.82) rotate(-87.57)"/>
        </g>
        <g>
          <path class="cls-8" d="M207.2,407.5c-.05,1.28,4.01,2.5,9.08,2.71,5.07.22,9.22-.65,9.27-1.93.05-1.28-4.01-2.5-9.08-2.71-5.07-.22-9.22.65-9.27,1.93Z"/>
          <path class="cls-5" d="M207.2,407.5c-.05,1.28,4.01,2.5,9.08,2.71,5.07.22,9.22-.65,9.27-1.93.05-1.28-4.01-2.5-9.08-2.71-5.07-.22-9.22.65-9.27,1.93Z"/>
        </g>
        <g>
          <path class="cls-8" d="M208.37,407.46c0,.08.03.17.08.23.61-.75,3.97-1.2,7.98-1.03,4.02.17,7.33.9,7.86,1.7.06-.06.09-.15.1-.22.04-.87-3.51-1.74-7.94-1.93-4.41-.19-8.04.38-8.08,1.25Z"/>
          <path class="cls-4" d="M208.37,407.46c0,.08.03.17.08.23.61-.75,3.97-1.2,7.98-1.03,4.02.17,7.33.9,7.86,1.7.06-.06.09-.15.1-.22.04-.87-3.51-1.74-7.94-1.93-4.41-.19-8.04.38-8.08,1.25Z"/>
        </g>
        <path class="cls-4" d="M208.45,407.69c.55.8,3.85,1.53,7.86,1.7,4.02.17,7.38-.27,7.98-1.03-.54-.8-3.84-1.53-7.86-1.7-4.01-.17-7.36.27-7.98,1.03Z"/>
      </g>
      <g>
        <g>
          <path class="cls-8" d="M205.17,406.31c-.05,1.28,4.01,2.5,9.08,2.71,5.07.22,9.22-.65,9.27-1.93.05-1.28-4.01-2.5-9.08-2.71-5.07-.22-9.22.65-9.27,1.93Z"/>
          <rect class="cls-8" x="213.24" y="396.35" width="2.33" height="18.37" transform="translate(-199.87 602.54) rotate(-87.57)"/>
        </g>
        <g>
          <path class="cls-8" d="M205.27,403.98c-.05,1.28,4.01,2.5,9.08,2.71,5.07.22,9.22-.65,9.27-1.93.05-1.28-4.01-2.5-9.08-2.71-5.07-.22-9.22.65-9.27,1.93Z"/>
          <path class="cls-5" d="M205.27,403.98c-.05,1.28,4.01,2.5,9.08,2.71,5.07.22,9.22-.65,9.27-1.93.05-1.28-4.01-2.5-9.08-2.71-5.07-.22-9.22.65-9.27,1.93Z"/>
        </g>
        <g>
          <path class="cls-8" d="M206.44,403.94c0,.08.03.17.08.23.61-.75,3.97-1.2,7.98-1.03,4.02.17,7.33.9,7.86,1.7.06-.06.09-.15.1-.22.04-.87-3.51-1.74-7.94-1.93-4.41-.19-8.04.38-8.08,1.25Z"/>
          <path class="cls-4" d="M206.44,403.94c0,.08.03.17.08.23.61-.75,3.97-1.2,7.98-1.03,4.02.17,7.33.9,7.86,1.7.06-.06.09-.15.1-.22.04-.87-3.51-1.74-7.94-1.93-4.41-.19-8.04.38-8.08,1.25Z"/>
        </g>
        <path class="cls-4" d="M206.52,404.17c.55.8,3.85,1.53,7.86,1.7,4.02.17,7.38-.27,7.98-1.03-.54-.8-3.84-1.53-7.86-1.7-4.01-.17-7.36.27-7.98,1.03Z"/>
      </g>
      <g>
        <g>
          <path class="cls-8" d="M208.12,403.33c-.05,1.28,4.01,2.5,9.08,2.71,5.07.22,9.22-.65,9.27-1.93.05-1.28-4.01-2.5-9.08-2.71-5.07-.22-9.22.65-9.27,1.93Z"/>
          <rect class="cls-8" x="216.18" y="393.37" width="2.33" height="18.37" transform="translate(-194.08 602.61) rotate(-87.57)"/>
        </g>
        <g>
          <path class="cls-8" d="M208.22,401c-.05,1.28,4.01,2.5,9.08,2.71,5.07.22,9.22-.65,9.27-1.94.05-1.28-4.01-2.5-9.08-2.71-5.07-.22-9.22.65-9.27,1.93Z"/>
          <path class="cls-5" d="M208.22,401c-.05,1.28,4.01,2.5,9.08,2.71,5.07.22,9.22-.65,9.27-1.94.05-1.28-4.01-2.5-9.08-2.71-5.07-.22-9.22.65-9.27,1.93Z"/>
        </g>
        <g>
          <path class="cls-8" d="M209.39,400.96c0,.08.03.17.08.23.61-.75,3.97-1.2,7.98-1.03,4.02.17,7.33.9,7.86,1.7.06-.06.09-.15.1-.22.04-.87-3.51-1.74-7.94-1.93-4.41-.19-8.04.38-8.08,1.25Z"/>
          <path class="cls-4" d="M209.39,400.96c0,.08.03.17.08.23.61-.75,3.97-1.2,7.98-1.03,4.02.17,7.33.9,7.86,1.7.06-.06.09-.15.1-.22.04-.87-3.51-1.74-7.94-1.93-4.41-.19-8.04.38-8.08,1.25Z"/>
        </g>
        <path class="cls-4" d="M209.47,401.19c.55.8,3.85,1.53,7.86,1.7,4.02.17,7.38-.27,7.98-1.03-.54-.8-3.84-1.53-7.86-1.7-4.01-.17-7.36.27-7.98,1.03Z"/>
      </g>
      <g>
        <g>
          <path class="cls-8" d="M195.18,417.38c.31,1.25,4.55,1.26,9.47.03,4.92-1.23,8.66-3.24,8.34-4.49-.31-1.25-4.55-1.26-9.47-.03-4.92,1.23-8.66,3.24-8.34,4.49Z"/>
          <rect class="cls-8" x="194.62" y="412.86" width="18.37" height="2.33" transform="translate(-94.47 61.91) rotate(-14.06)"/>
        </g>
        <g>
          <path class="cls-8" d="M194.62,415.13c.31,1.25,4.55,1.26,9.47.03,4.92-1.23,8.66-3.24,8.34-4.49-.31-1.25-4.55-1.26-9.47-.03-4.92,1.23-8.66,3.24-8.34,4.49Z"/>
          <path class="cls-5" d="M194.62,415.13c.31,1.25,4.55,1.26,9.47.03,4.92-1.23,8.66-3.24,8.34-4.49-.31-1.25-4.55-1.26-9.47-.03-4.92,1.23-8.66,3.24-8.34,4.49Z"/>
        </g>
        <g>
          <path class="cls-8" d="M195.73,414.76c.02.07.07.15.14.2.37-.9,3.47-2.28,7.36-3.25,3.9-.98,7.28-1.22,8.02-.6.04-.07.05-.17.03-.24-.21-.84-3.86-.67-8.16.4-4.29,1.07-7.6,2.65-7.39,3.49Z"/>
          <path class="cls-4" d="M195.73,414.76c.02.07.07.15.14.2.37-.9,3.47-2.28,7.36-3.25,3.9-.98,7.28-1.22,8.02-.6.04-.07.05-.17.03-.24-.21-.84-3.86-.67-8.16.4-4.29,1.07-7.6,2.65-7.39,3.49Z"/>
        </g>
        <path class="cls-4" d="M195.87,414.95c.75.62,4.13.37,8.02-.6,3.9-.98,6.99-2.35,7.36-3.25-.74-.62-4.12-.38-8.02.6-3.89.97-6.98,2.35-7.36,3.25Z"/>
      </g>
      <g>
        <g>
          <path class="cls-8" d="M186.67,417.59c-.05,1.28,4.01,2.5,9.08,2.71,5.07.22,9.22-.65,9.27-1.93.05-1.28-4.01-2.5-9.08-2.71-5.07-.22-9.22.65-9.27,1.93Z"/>
          <rect class="cls-8" x="194.73" y="407.63" width="2.33" height="18.37" transform="translate(-228.86 594.84) rotate(-87.57)"/>
        </g>
        <g>
          <path class="cls-8" d="M186.77,415.26c-.05,1.28,4.01,2.5,9.08,2.71,5.07.22,9.22-.65,9.27-1.93.05-1.28-4.01-2.5-9.08-2.71-5.07-.22-9.22.65-9.27,1.93Z"/>
          <path class="cls-5" d="M186.77,415.26c-.05,1.28,4.01,2.5,9.08,2.71,5.07.22,9.22-.65,9.27-1.93.05-1.28-4.01-2.5-9.08-2.71-5.07-.22-9.22.65-9.27,1.93Z"/>
        </g>
        <g>
          <path class="cls-8" d="M187.94,415.22c0,.08.03.17.08.23.61-.75,3.97-1.2,7.98-1.03,4.02.17,7.33.9,7.86,1.7.06-.06.09-.15.1-.22.04-.87-3.51-1.74-7.94-1.93-4.41-.19-8.04.38-8.08,1.25Z"/>
          <path class="cls-4" d="M187.94,415.22c0,.08.03.17.08.23.61-.75,3.97-1.2,7.98-1.03,4.02.17,7.33.9,7.86,1.7.06-.06.09-.15.1-.22.04-.87-3.51-1.74-7.94-1.93-4.41-.19-8.04.38-8.08,1.25Z"/>
        </g>
        <path class="cls-4" d="M188.02,415.45c.55.8,3.85,1.53,7.86,1.7,4.02.17,7.38-.27,7.98-1.03-.54-.8-3.84-1.53-7.86-1.7-4.01-.17-7.36.27-7.98,1.03Z"/>
      </g>
    </g>
    <g>
      <g>
        <g>
          <path class="cls-8" d="M281.46,417.48c-.06,1.32,4.12,2.57,9.33,2.79,5.21.22,9.48-.67,9.54-1.99.06-1.32-4.12-2.57-9.33-2.79-5.21-.22-9.48.67-9.54,1.99Z"/>
          <rect class="cls-8" x="289.75" y="407.25" width="2.39" height="18.89" transform="translate(-137.73 689.67) rotate(-87.57)"/>
        </g>
        <g>
          <path class="cls-8" d="M281.56,415.09c-.06,1.32,4.12,2.57,9.33,2.79,5.21.22,9.48-.67,9.54-1.99.06-1.32-4.12-2.57-9.33-2.79s-9.48.67-9.54,1.99Z"/>
          <path class="cls-5" d="M281.56,415.09c-.06,1.32,4.12,2.57,9.33,2.79,5.21.22,9.48-.67,9.54-1.99.06-1.32-4.12-2.57-9.33-2.79s-9.48.67-9.54,1.99Z"/>
        </g>
        <g>
          <path class="cls-8" d="M282.76,415.05c0,.08.03.17.08.24.63-.78,4.08-1.23,8.2-1.06,4.13.18,7.53.92,8.08,1.75.06-.06.1-.15.1-.23.04-.89-3.61-1.79-8.16-1.98-4.54-.19-8.27.39-8.3,1.28Z"/>
          <path class="cls-4" d="M282.76,415.05c0,.08.03.17.08.24.63-.78,4.08-1.23,8.2-1.06,4.13.18,7.53.92,8.08,1.75.06-.06.1-.15.1-.23.04-.89-3.61-1.79-8.16-1.98-4.54-.19-8.27.39-8.3,1.28Z"/>
        </g>
        <path class="cls-4" d="M282.84,415.29c.56.83,3.96,1.57,8.08,1.75,4.13.18,7.58-.28,8.2-1.06-.55-.83-3.95-1.57-8.08-1.75-4.12-.18-7.57.28-8.2,1.06Z"/>
      </g>
      <g>
        <g>
          <path class="cls-8" d="M279.47,413.86c-.06,1.32,4.12,2.57,9.33,2.79,5.21.22,9.48-.67,9.54-1.99.06-1.32-4.12-2.57-9.33-2.79-5.21-.22-9.48.67-9.54,1.99Z"/>
          <rect class="cls-8" x="287.76" y="403.63" width="2.39" height="18.89" transform="translate(-136 684.24) rotate(-87.57)"/>
        </g>
        <g>
          <path class="cls-8" d="M279.58,411.47c-.06,1.32,4.12,2.57,9.33,2.79,5.21.22,9.48-.67,9.54-1.99.06-1.32-4.12-2.57-9.33-2.79-5.21-.22-9.48.67-9.54,1.99Z"/>
          <path class="cls-5" d="M279.58,411.47c-.06,1.32,4.12,2.57,9.33,2.79,5.21.22,9.48-.67,9.54-1.99.06-1.32-4.12-2.57-9.33-2.79-5.21-.22-9.48.67-9.54,1.99Z"/>
        </g>
        <g>
          <path class="cls-8" d="M280.78,411.43c0,.08.03.17.08.24.63-.78,4.08-1.23,8.2-1.06,4.13.18,7.53.92,8.08,1.75.06-.06.1-.15.1-.23.04-.89-3.61-1.79-8.16-1.98-4.54-.19-8.27.39-8.3,1.28Z"/>
          <path class="cls-4" d="M280.78,411.43c0,.08.03.17.08.24.63-.78,4.08-1.23,8.2-1.06,4.13.18,7.53.92,8.08,1.75.06-.06.1-.15.1-.23.04-.89-3.61-1.79-8.16-1.98-4.54-.19-8.27.39-8.3,1.28Z"/>
        </g>
        <path class="cls-4" d="M280.86,411.67c.56.83,3.96,1.57,8.08,1.75,4.13.18,7.58-.28,8.2-1.06-.55-.83-3.95-1.57-8.08-1.75-4.12-.18-7.57.28-8.2,1.06Z"/>
      </g>
      <g>
        <g>
          <path class="cls-8" d="M283.73,411.19c-.06,1.32,4.12,2.57,9.33,2.79,5.21.22,9.48-.67,9.54-1.99.06-1.32-4.12-2.57-9.33-2.79-5.21-.22-9.48.67-9.54,1.99Z"/>
          <rect class="cls-8" x="292.01" y="400.95" width="2.39" height="18.89" transform="translate(-129.26 685.91) rotate(-87.57)"/>
        </g>
        <g>
          <path class="cls-8" d="M283.83,408.79c-.06,1.32,4.12,2.57,9.33,2.79,5.21.22,9.48-.67,9.54-1.99.06-1.32-4.12-2.57-9.33-2.79-5.21-.22-9.48.67-9.54,1.99Z"/>
          <path class="cls-5" d="M283.83,408.79c-.06,1.32,4.12,2.57,9.33,2.79,5.21.22,9.48-.67,9.54-1.99.06-1.32-4.12-2.57-9.33-2.79-5.21-.22-9.48.67-9.54,1.99Z"/>
        </g>
        <g>
          <path class="cls-8" d="M285.03,408.75c0,.08.03.17.08.24.63-.78,4.08-1.23,8.2-1.06,4.13.18,7.53.92,8.08,1.75.06-.06.1-.15.1-.23.04-.89-3.61-1.79-8.16-1.98-4.54-.19-8.27.39-8.3,1.28Z"/>
          <path class="cls-4" d="M285.03,408.75c0,.08.03.17.08.24.63-.78,4.08-1.23,8.2-1.06,4.13.18,7.53.92,8.08,1.75.06-.06.1-.15.1-.23.04-.89-3.61-1.79-8.16-1.98-4.54-.19-8.27.39-8.3,1.28Z"/>
        </g>
        <path class="cls-4" d="M285.11,408.99c.56.83,3.96,1.57,8.08,1.75,4.13.18,7.58-.28,8.2-1.06-.55-.83-3.95-1.57-8.08-1.75-4.12-.18-7.57.28-8.2,1.06Z"/>
      </g>
      <g>
        <g>
          <path class="cls-8" d="M283.78,407.57c-.06,1.32,4.12,2.57,9.33,2.79,5.21.22,9.48-.67,9.54-1.99.06-1.32-4.12-2.57-9.33-2.79-5.21-.22-9.48.67-9.54,1.99Z"/>
          <rect class="cls-8" x="292.07" y="397.33" width="2.39" height="18.89" transform="translate(-125.59 682.51) rotate(-87.57)"/>
        </g>
        <g>
          <path class="cls-8" d="M283.88,405.18c-.06,1.32,4.12,2.57,9.33,2.79,5.21.22,9.48-.67,9.54-1.99.06-1.32-4.12-2.57-9.33-2.79-5.21-.22-9.48.67-9.54,1.99Z"/>
          <path class="cls-5" d="M283.88,405.18c-.06,1.32,4.12,2.57,9.33,2.79,5.21.22,9.48-.67,9.54-1.99.06-1.32-4.12-2.57-9.33-2.79-5.21-.22-9.48.67-9.54,1.99Z"/>
        </g>
        <g>
          <path class="cls-8" d="M285.08,405.14c0,.08.03.17.08.24.63-.78,4.08-1.23,8.2-1.06,4.13.18,7.53.92,8.08,1.75.06-.06.1-.15.1-.23.04-.89-3.61-1.79-8.16-1.98-4.54-.19-8.27.39-8.3,1.28Z"/>
          <path class="cls-4" d="M285.08,405.14c0,.08.03.17.08.24.63-.78,4.08-1.23,8.2-1.06,4.13.18,7.53.92,8.08,1.75.06-.06.1-.15.1-.23.04-.89-3.61-1.79-8.16-1.98-4.54-.19-8.27.39-8.3,1.28Z"/>
        </g>
        <path class="cls-4" d="M285.16,405.37c.56.83,3.96,1.57,8.08,1.75,4.13.18,7.58-.28,8.2-1.06-.55-.83-3.95-1.57-8.08-1.75-4.12-.18-7.57.28-8.2,1.06Z"/>
      </g>
      <g>
        <g>
          <path class="cls-8" d="M279.9,404.61c-.06,1.32,4.12,2.57,9.33,2.79,5.21.22,9.48-.67,9.54-1.99.06-1.32-4.12-2.57-9.33-2.79-5.21-.22-9.48.67-9.54,1.99Z"/>
          <rect class="cls-8" x="288.19" y="394.37" width="2.39" height="18.89" transform="translate(-126.37 675.77) rotate(-87.56)"/>
        </g>
        <g>
          <path class="cls-8" d="M280,402.22c-.06,1.32,4.12,2.57,9.33,2.79,5.21.22,9.48-.67,9.54-1.99.06-1.32-4.12-2.57-9.33-2.79-5.21-.22-9.48.67-9.54,1.99Z"/>
          <path class="cls-5" d="M280,402.22c-.06,1.32,4.12,2.57,9.33,2.79,5.21.22,9.48-.67,9.54-1.99.06-1.32-4.12-2.57-9.33-2.79-5.21-.22-9.48.67-9.54,1.99Z"/>
        </g>
        <g>
          <path class="cls-8" d="M281.2,402.18c0,.08.03.17.08.24.63-.78,4.08-1.23,8.2-1.06,4.13.18,7.53.92,8.08,1.75.06-.06.1-.15.1-.23.04-.89-3.61-1.79-8.16-1.98-4.54-.19-8.27.39-8.3,1.28Z"/>
          <path class="cls-4" d="M281.2,402.18c0,.08.03.17.08.24.63-.78,4.08-1.23,8.2-1.06,4.13.18,7.53.92,8.08,1.75.06-.06.1-.15.1-.23.04-.89-3.61-1.79-8.16-1.98-4.54-.19-8.27.39-8.3,1.28Z"/>
        </g>
        <path class="cls-4" d="M281.28,402.41c.56.83,3.96,1.57,8.08,1.75,4.13.18,7.58-.28,8.2-1.06-.55-.83-3.95-1.57-8.08-1.75-4.12-.18-7.57.28-8.2,1.06Z"/>
      </g>
    </g>
    <g>
      <g>
        <path class="cls-8" d="M304.26,411.81c-.55,1.16,2.73,3.85,7.32,6.01,4.59,2.16,8.76,2.96,9.3,1.8.55-1.16-2.73-3.85-7.32-6.01-4.59-2.16-8.76-2.96-9.3-1.8Z"/>
        <rect class="cls-8" x="311.9" y="405.48" width="2.33" height="18.37" transform="translate(-195.37 521.68) rotate(-64.83)"/>
      </g>
      <g>
        <path class="cls-8" d="M305.25,409.71c-.55,1.16,2.73,3.85,7.32,6.01,4.59,2.16,8.76,2.96,9.3,1.8.55-1.16-2.73-3.85-7.32-6.01-4.59-2.16-8.76-2.96-9.3-1.8Z"/>
        <path class="cls-5" d="M305.25,409.71c-.55,1.16,2.73,3.85,7.32,6.01,4.59,2.16,8.76,2.96,9.3,1.8.55-1.16-2.73-3.85-7.32-6.01-4.59-2.16-8.76-2.96-9.3-1.8Z"/>
      </g>
      <g>
        <path class="cls-8" d="M306.34,410.12c-.03.07-.04.16-.02.24.86-.46,4.12.43,7.76,2.14,3.64,1.71,6.41,3.66,6.59,4.61.08-.03.14-.1.18-.17.37-.79-2.57-2.96-6.58-4.85-4-1.88-7.56-2.76-7.93-1.97Z"/>
        <path class="cls-4" d="M306.34,410.12c-.03.07-.04.16-.02.24.86-.46,4.12.43,7.76,2.14,3.64,1.71,6.41,3.66,6.59,4.61.08-.03.14-.1.18-.17.37-.79-2.57-2.96-6.58-4.85-4-1.88-7.56-2.76-7.93-1.97Z"/>
      </g>
      <path class="cls-4" d="M306.33,410.36c.19.95,2.96,2.9,6.59,4.61,3.64,1.71,6.91,2.6,7.76,2.14-.18-.95-2.95-2.9-6.59-4.61-3.63-1.71-6.9-2.59-7.76-2.14Z"/>
    </g>
    <g>
      <g>
        <path class="cls-8" d="M294.61,415.94c-.05,1.28,4.01,2.5,9.08,2.71,5.07.22,9.22-.65,9.27-1.93.05-1.28-4.01-2.5-9.08-2.71-5.07-.22-9.22.65-9.27,1.93Z"/>
        <rect class="cls-8" x="302.68" y="405.98" width="2.33" height="18.37" transform="translate(-123.85 701.1) rotate(-87.57)"/>
      </g>
      <g>
        <path class="cls-8" d="M294.71,413.61c-.05,1.28,4.01,2.5,9.08,2.71,5.07.22,9.22-.65,9.27-1.94.05-1.28-4.01-2.5-9.08-2.71-5.07-.22-9.22.65-9.27,1.93Z"/>
        <path class="cls-5" d="M294.71,413.61c-.05,1.28,4.01,2.5,9.08,2.71,5.07.22,9.22-.65,9.27-1.94.05-1.28-4.01-2.5-9.08-2.71-5.07-.22-9.22.65-9.27,1.93Z"/>
      </g>
      <g>
        <path class="cls-8" d="M295.88,413.57c0,.08.03.17.08.23.61-.75,3.97-1.2,7.98-1.03,4.02.17,7.33.9,7.86,1.7.06-.06.09-.15.1-.22.04-.87-3.51-1.74-7.94-1.93-4.41-.19-8.04.38-8.08,1.25Z"/>
        <path class="cls-4" d="M295.88,413.57c0,.08.03.17.08.23.61-.75,3.97-1.2,7.98-1.03,4.02.17,7.33.9,7.86,1.7.06-.06.09-.15.1-.22.04-.87-3.51-1.74-7.94-1.93-4.41-.19-8.04.38-8.08,1.25Z"/>
      </g>
      <path class="cls-4" d="M295.96,413.8c.55.8,3.85,1.53,7.86,1.7,4.02.17,7.38-.27,7.98-1.03-.54-.8-3.84-1.53-7.86-1.7-4.01-.17-7.36.27-7.98,1.03Z"/>
    </g>
  </g>
  <g id="Chart_1" data-name="Chart 1">
    <g>
      <g>
        <path class="cls-8" d="M132.93,159.03v6.04c3.89.31,7.44,1.85,10.25,4.24l4.27-4.27c-3.91-3.47-8.96-5.68-14.52-6.01Z"/>
        <path class="cls-8" d="M130.02,201.09c-8.82-.7-15.85-7.73-16.55-16.55h-6.04c.73,12.15,10.45,21.87,22.59,22.59v-6.04Z"/>
        <g>
          <path class="cls-8" d="M113.47,181.62c.7-8.82,7.74-15.85,16.55-16.55v-6.04c-12.15.73-21.87,10.45-22.59,22.59h6.04Z"/>
          <path class="cls-15" d="M113.47,181.62c.7-8.82,7.74-15.85,16.55-16.55v-6.04c-12.15.73-21.87,10.45-22.59,22.59h6.04Z"/>
        </g>
        <path class="cls-8" d="M149.51,167.11l-4.27,4.27c2.68,3.15,4.31,7.24,4.31,11.71,0,9.49-7.32,17.27-16.62,18.01v6.04c12.63-.75,22.64-11.23,22.64-24.05,0-6.13-2.29-11.72-6.06-15.97Z"/>
      </g>
      <g>
        <g class="cls-16">
          <path class="cls-10" d="M132.93,159.03v6.04c3.89.31,7.44,1.85,10.25,4.24l4.27-4.27c-3.91-3.47-8.96-5.68-14.52-6.01Z"/>
        </g>
        <g class="cls-18">
          <path class="cls-10" d="M130.02,201.09c-8.82-.7-15.85-7.73-16.55-16.55h-6.04c.73,12.15,10.45,21.87,22.59,22.59v-6.04Z"/>
        </g>
        <g class="cls-19">
          <path class="cls-10" d="M113.47,181.62c.7-8.82,7.74-15.85,16.55-16.55v-6.04c-12.15.73-21.87,10.45-22.59,22.59h6.04Z"/>
        </g>
        <path class="cls-6" d="M149.51,167.11l-4.27,4.27c2.68,3.15,4.31,7.24,4.31,11.71,0,9.49-7.32,17.27-16.62,18.01v6.04c12.63-.75,22.64-11.23,22.64-24.05,0-6.13-2.29-11.72-6.06-15.97Z"/>
      </g>
    </g>
  </g>
  <g id="Arrow">
    <g>
      <polygon class="cls-8" points="175.3 152.66 182.95 163.04 227.03 144.74 270 160.02 308.93 134.85 311.72 138.55 320.97 123.41 300.24 121.79 303.42 125.98 264.46 150.92 222.13 135.9 175.3 152.66"/>
      <g class="cls-17">
        <polygon class="cls-10" points="175.3 152.66 182.95 163.04 227.03 144.74 270 160.02 308.93 134.85 311.72 138.55 320.97 123.41 300.24 121.79 303.42 125.98 264.46 150.92 222.13 135.9 175.3 152.66"/>
      </g>
    </g>
  </g>
  <g id="Symbol">
    <g>
      <g>
        <path class="cls-8" d="M355.99,159.12c-5.36,0-9.7,4.34-9.7,9.7s4.34,9.7,9.7,9.7,9.7-4.35,9.7-9.7-4.35-9.7-9.7-9.7ZM355.99,173.67c-2.68,0-4.85-2.17-4.85-4.85s2.17-4.85,4.85-4.85,4.85,2.17,4.85,4.85-2.17,4.85-4.85,4.85Z"/>
        <path class="cls-8" d="M380.45,187.58c-5.36,0-9.7,4.34-9.7,9.7s4.34,9.7,9.7,9.7,9.7-4.35,9.7-9.7-4.35-9.7-9.7-9.7ZM380.45,202.12c-2.68,0-4.85-2.17-4.85-4.85s2.17-4.85,4.85-4.85,4.85,2.17,4.85,4.85-2.17,4.85-4.85,4.85Z"/>
        <polygon class="cls-8" points="359.63 206.98 353.18 206.98 375.59 159.12 382.04 159.12 359.63 206.98"/>
      </g>
      <g class="cls-17">
        <path class="cls-10" d="M355.99,159.12c-5.36,0-9.7,4.34-9.7,9.7s4.34,9.7,9.7,9.7,9.7-4.35,9.7-9.7-4.35-9.7-9.7-9.7ZM355.99,173.67c-2.68,0-4.85-2.17-4.85-4.85s2.17-4.85,4.85-4.85,4.85,2.17,4.85,4.85-2.17,4.85-4.85,4.85Z"/>
        <path class="cls-10" d="M380.45,187.58c-5.36,0-9.7,4.34-9.7,9.7s4.34,9.7,9.7,9.7,9.7-4.35,9.7-9.7-4.35-9.7-9.7-9.7ZM380.45,202.12c-2.68,0-4.85-2.17-4.85-4.85s2.17-4.85,4.85-4.85,4.85,2.17,4.85,4.85-2.17,4.85-4.85,4.85Z"/>
        <polygon class="cls-10" points="359.63 206.98 353.18 206.98 375.59 159.12 382.04 159.12 359.63 206.98"/>
      </g>
    </g>
  </g>
</svg>