<svg width="164" height="32" viewBox="0 0 164 32" fill="none" xmlns="http://www.w3.org/2000/svg">
<path d="M20.7678 0V8.24447L19.0106 7.23008L4.70993 32H0L15.4783 5.19074L13.6277 4.12246L20.7678 0Z" fill="#025BAE"/>
<path d="M13.6036 32H7.49902L10.5514 26.7134L13.6036 32Z" fill="#025BAE" fill-opacity="0.5"/>
<path d="M21.1024 32H16.3927L11.9458 24.2977L14.3005 20.219L21.1024 32Z" fill="#025BAE" fill-opacity="0.5"/>
<path d="M28.6013 31.9999H23.8916L15.6956 17.8033L18.0503 13.7244L28.6013 31.9999Z" fill="#025BAE"/>
<path d="M43.8442 29H40.0442L44.9799 14.3714H49.687L54.6228 29H50.8228L47.387 18.0571H47.2728L43.8442 29ZM43.337 23.2429H51.2799V25.9286H43.337V23.2429ZM65.8447 21.3786L62.6375 21.4643C62.6042 21.2357 62.5137 21.0333 62.3661 20.8571C62.2185 20.6762 62.0256 20.5357 61.7875 20.4357C61.5542 20.331 61.2828 20.2786 60.9733 20.2786C60.5685 20.2786 60.2233 20.3595 59.9375 20.5214C59.6566 20.6833 59.5185 20.9024 59.5233 21.1786C59.5185 21.3929 59.6042 21.5786 59.7804 21.7357C59.9614 21.8929 60.2828 22.019 60.7447 22.1143L62.859 22.5143C63.9542 22.7238 64.7685 23.0714 65.3018 23.5571C65.8399 24.0429 66.1114 24.6857 66.1161 25.4857C66.1114 26.2381 65.8875 26.8929 65.4447 27.45C65.0066 28.0071 64.4066 28.4405 63.6447 28.75C62.8828 29.0548 62.0114 29.2071 61.0304 29.2071C59.4637 29.2071 58.228 28.8857 57.3233 28.2429C56.4233 27.5952 55.909 26.7286 55.7804 25.6429L59.2304 25.5571C59.3066 25.9571 59.5042 26.2619 59.8233 26.4714C60.1423 26.681 60.5494 26.7857 61.0447 26.7857C61.4923 26.7857 61.8566 26.7024 62.1375 26.5357C62.4185 26.369 62.5614 26.1476 62.5661 25.8714C62.5614 25.6238 62.4518 25.4262 62.2375 25.2786C62.0233 25.1262 61.6875 25.0071 61.2304 24.9214L59.3161 24.5571C58.2161 24.3571 57.3971 23.9881 56.859 23.45C56.3209 22.9071 56.0542 22.2167 56.059 21.3786C56.0542 20.6452 56.2494 20.019 56.6447 19.5C57.0399 18.9762 57.6018 18.5762 58.3304 18.3C59.059 18.0238 59.9185 17.8857 60.909 17.8857C62.3947 17.8857 63.5661 18.1976 64.4233 18.8214C65.2804 19.4405 65.7542 20.2929 65.8447 21.3786ZM77.8166 21.3786L74.6095 21.4643C74.5761 21.2357 74.4857 21.0333 74.338 20.8571C74.1904 20.6762 73.9976 20.5357 73.7595 20.4357C73.5261 20.331 73.2547 20.2786 72.9452 20.2786C72.5404 20.2786 72.1952 20.3595 71.9095 20.5214C71.6285 20.6833 71.4904 20.9024 71.4952 21.1786C71.4904 21.3929 71.5761 21.5786 71.7523 21.7357C71.9333 21.8929 72.2547 22.019 72.7166 22.1143L74.8309 22.5143C75.9261 22.7238 76.7404 23.0714 77.2738 23.5571C77.8119 24.0429 78.0833 24.6857 78.088 25.4857C78.0833 26.2381 77.8595 26.8929 77.4166 27.45C76.9785 28.0071 76.3785 28.4405 75.6166 28.75C74.8547 29.0548 73.9833 29.2071 73.0023 29.2071C71.4357 29.2071 70.1999 28.8857 69.2952 28.2429C68.3952 27.5952 67.8809 26.7286 67.7523 25.6429L71.2023 25.5571C71.2785 25.9571 71.4761 26.2619 71.7952 26.4714C72.1142 26.681 72.5214 26.7857 73.0166 26.7857C73.4642 26.7857 73.8285 26.7024 74.1095 26.5357C74.3904 26.369 74.5333 26.1476 74.538 25.8714C74.5333 25.6238 74.4238 25.4262 74.2095 25.2786C73.9952 25.1262 73.6595 25.0071 73.2023 24.9214L71.288 24.5571C70.188 24.3571 69.369 23.9881 68.8309 23.45C68.2928 22.9071 68.0261 22.2167 68.0309 21.3786C68.0261 20.6452 68.2214 20.019 68.6166 19.5C69.0119 18.9762 69.5738 18.5762 70.3023 18.3C71.0309 18.0238 71.8904 17.8857 72.8809 17.8857C74.3666 17.8857 75.538 18.1976 76.3952 18.8214C77.2523 19.4405 77.7261 20.2929 77.8166 21.3786ZM85.3385 29.2071C84.1909 29.2071 83.2004 28.981 82.3671 28.5286C81.5385 28.0714 80.9004 27.4214 80.4528 26.5786C80.01 25.731 79.7885 24.7238 79.7885 23.5571C79.7885 22.4238 80.0123 21.4333 80.46 20.5857C80.9076 19.7333 81.5385 19.0714 82.3528 18.6C83.1671 18.1238 84.1266 17.8857 85.2314 17.8857C86.0123 17.8857 86.7266 18.0071 87.3743 18.25C88.0219 18.4929 88.5814 18.8524 89.0528 19.3286C89.5243 19.8048 89.8909 20.3929 90.1528 21.0929C90.4147 21.7881 90.5457 22.5857 90.5457 23.4857V24.3571H81.01V22.3286H87.2957C87.2909 21.9571 87.2028 21.6262 87.0314 21.3357C86.86 21.0452 86.6243 20.819 86.3243 20.6571C86.029 20.4905 85.6885 20.4071 85.3028 20.4071C84.9123 20.4071 84.5623 20.4952 84.2528 20.6714C83.9433 20.8429 83.6981 21.0786 83.5171 21.3786C83.3362 21.6738 83.2409 22.0095 83.2314 22.3857V24.45C83.2314 24.8976 83.3195 25.2905 83.4957 25.6286C83.6719 25.9619 83.9219 26.2214 84.2457 26.4071C84.5695 26.5929 84.9552 26.6857 85.4028 26.6857C85.7123 26.6857 85.9933 26.6429 86.2457 26.5571C86.4981 26.4714 86.7147 26.3452 86.8957 26.1786C87.0766 26.0119 87.2123 25.8071 87.3028 25.5643L90.51 25.6571C90.3766 26.3762 90.0838 27.0024 89.6314 27.5357C89.1838 28.0643 88.5957 28.4762 87.8671 28.7714C87.1385 29.0619 86.2957 29.2071 85.3385 29.2071ZM98.9248 18.0286V20.6H92.0033V18.0286H98.9248ZM93.4533 15.4H96.9462V25.55C96.9462 25.7643 96.9795 25.9381 97.0462 26.0714C97.1176 26.2 97.22 26.2929 97.3533 26.35C97.4867 26.4024 97.6462 26.4286 97.8319 26.4286C97.9652 26.4286 98.1057 26.4167 98.2533 26.3929C98.4057 26.3643 98.52 26.3405 98.5962 26.3214L99.1248 28.8429C98.9581 28.8905 98.7224 28.95 98.4176 29.0214C98.1176 29.0929 97.7581 29.1381 97.339 29.1571C96.52 29.1952 95.8176 29.1 95.2319 28.8714C94.6509 28.6381 94.2057 28.2762 93.8962 27.7857C93.5914 27.2952 93.4438 26.6786 93.4533 25.9357V15.4Z" fill="#025BAE"/>
<path d="M104.273 29H100.473L105.409 14.3714H110.116L115.052 29H111.252L107.816 18.0571H107.702L104.273 29ZM103.766 23.2429H111.709V25.9286H103.766V23.2429ZM117.029 29V18.0286H120.422V20.0286H120.536C120.736 19.3048 121.063 18.7667 121.515 18.4143C121.967 18.0571 122.494 17.8786 123.094 17.8786C123.256 17.8786 123.422 17.8905 123.594 17.9143C123.765 17.9333 123.925 17.9643 124.072 18.0071V21.0429C123.906 20.9857 123.686 20.9405 123.415 20.9071C123.148 20.8738 122.91 20.8571 122.701 20.8571C122.286 20.8571 121.913 20.95 121.579 21.1357C121.251 21.3167 120.991 21.5714 120.801 21.9C120.615 22.2238 120.522 22.6048 120.522 23.0429V29H117.029ZM125.898 29V18.0286H129.291V20.0286H129.405C129.605 19.3048 129.931 18.7667 130.383 18.4143C130.836 18.0571 131.362 17.8786 131.962 17.8786C132.124 17.8786 132.291 17.8905 132.462 17.9143C132.633 17.9333 132.793 17.9643 132.941 18.0071V21.0429C132.774 20.9857 132.555 20.9405 132.283 20.9071C132.017 20.8738 131.779 20.8571 131.569 20.8571C131.155 20.8571 130.781 20.95 130.448 21.1357C130.119 21.3167 129.86 21.5714 129.669 21.9C129.483 22.2238 129.391 22.6048 129.391 23.0429V29H125.898ZM139.318 29.2071C138.165 29.2071 137.175 28.9714 136.346 28.5C135.523 28.0238 134.887 27.3619 134.439 26.5143C133.996 25.6619 133.775 24.6738 133.775 23.55C133.775 22.4214 133.996 21.4333 134.439 20.5857C134.887 19.7333 135.523 19.0714 136.346 18.6C137.175 18.1238 138.165 17.8857 139.318 17.8857C140.47 17.8857 141.458 18.1238 142.282 18.6C143.111 19.0714 143.746 19.7333 144.189 20.5857C144.637 21.4333 144.861 22.4214 144.861 23.55C144.861 24.6738 144.637 25.6619 144.189 26.5143C143.746 27.3619 143.111 28.0238 142.282 28.5C141.458 28.9714 140.47 29.2071 139.318 29.2071ZM139.339 26.5714C139.758 26.5714 140.113 26.4429 140.404 26.1857C140.694 25.9286 140.915 25.5714 141.068 25.1143C141.225 24.6571 141.304 24.1286 141.304 23.5286C141.304 22.919 141.225 22.3857 141.068 21.9286C140.915 21.4714 140.694 21.1143 140.404 20.8571C140.113 20.6 139.758 20.4714 139.339 20.4714C138.906 20.4714 138.539 20.6 138.239 20.8571C137.944 21.1143 137.718 21.4714 137.561 21.9286C137.408 22.3857 137.332 22.919 137.332 23.5286C137.332 24.1286 137.408 24.6571 137.561 25.1143C137.718 25.5714 137.944 25.9286 138.239 26.1857C138.539 26.4429 138.906 26.5714 139.339 26.5714ZM148.867 29L146.009 18.0286H149.517L150.995 25.0571H151.088L152.674 18.0286H156.095L157.724 25.0071H157.817L159.252 18.0286H162.759L159.895 29H156.159L154.445 22.6071H154.324L152.609 29H148.867Z" fill="#80ADD7"/>
</svg>
